<?xml version="1.0" encoding="UTF-8"?>
<svg xmlns="http://www.w3.org/2000/svg" viewBox="0 0 4803.74 4958.08">
  <defs>
    <style>
      .cls-1 {
        fill: #231f20;
        stroke-width: 0px;
      }
    </style>
  </defs>
  <g id="Layer_10" data-name="Layer 10">
    <path class="cls-1" d="m486.43,561.62c6.88-1.23,13.78-5.65,16.11-12.46,6.88-17.26,13.78-37.7,18.36-57.78,29.89-82.25,71.29-153.72,128.8-202.4,11.48-11.68,20.66-16.51,27.59-17.74,11.48-2.03,18.38,6.36,29.89,26.74,75.87,146.77,114.99,284.1,133.35,469.92,16.11,109.36,23.01,223.51,16.11,343.33-4.6,48.9-6.88,49.3-41.4,61.87-25.29,10.9-50.58,18.59-73.59,29.1-20.69,10.08-29.89,34.17-22.99,58.58,9.21,30.4,25.29,50.01,50.58,48.71,16.11-2.87,32.22-5.73,48.3-8.6,11.51-2.05,16.11,6.76,16.11,22.79,0,176.29-147.17,596.74-213.86,765.67-11.48,30.9-29.89,66.22-50.58,92.33-6.9,7.63-13.78,12.08-20.71,13.31-9.18,1.63-18.36-3.17-22.99-18.36-11.48-26.82-13.78-61.66-13.78-90.51,4.6-87.35,13.78-172.31,73.59-231.04,9.18-8.06,6.88-17.28,2.28-22.86-9.18-14.39-18.39-19.16-29.87-17.11-18.41,3.27-41.4,29.79-50.6,50.65-41.4,81.1-66.69,168.93-64.39,264.68,0,108.99,48.28,167.75,126.47,163.43,117.27-20.86,197.75-118.5,262.14-261.36,105.76-236.79,167.86-485.04,200.03-747.23,4.6-36.07,13.81-47.3,39.12-55.03,25.29-7.7,52.88-12.61,80.47-17.51,25.29-4.5,29.89,1.12,29.89,36.37-4.6,96.98-6.9,190.34-11.5,284.12-2.28,64.52-4.61,129.05-4.61,193.15,2.33,98.94,6.91,200.72,9.21,299.66,2.3,25.26,6.9,46.86,9.18,72.1,2.3,15.63,6.93,27.59,16.11,32.39,6.76,6.18,28.41,22.11,48.86,24.94,30.86-21.76,46.6-49.34,79.48-59.97,3.36-16.09,4.83-26.42,5.03-33.55,2.3-83.75,9.21-165.12,16.11-246.47,2.28-61.32,9.18-126.65,9.18-187.56,0-128.21,6.91-260.89,13.81-393.54,0-12.83,0-22.42,2.3-35.65,2.3-22.87,11.51-34.1,29.89-40.57,6.91-4.46,13.81-5.7,20.69-6.91,9.18-1.63,16.11-2.87,20.71-3.68,39.1-6.96,39.1,5.86,43.68,75.59,6.9,200.7,91.96,438.79,209.23,542.94,34.52,35.55,75.89,47.41,121.88,48.88,55.18-9.83,96.58-36.42,114.97-119.82,2.3-16.43,4.6-29.67,9.2-46.51,2.52-10.26,3.78-19.89,4.56-29.29.78,9.36,1.18,18.78,2.22,28.09,6.93,34.02,20.71,60.41,41.4,75.97,27.59,23.94,59.78,31.05,94.28,24.91,11.5-2.05,20.71-3.68,32.19-8.95,39.1-13.36,64.39-56.31,85.1-104.87,4.6-16.84,11.48-30.9,18.38-48.15,18.39-57.79,36.8-112.34,55.21-170.08,55.18-186.11,108.06-371.85,160.93-557.54,2.3-6.81,6.9-10.83,9.18-11.23,6.93-1.23,9.23,4.75,6.93,14.79-4.6,61.72-4.6,122.6-2.3,183.09,0,86.56,16.08,208.71,96.58,194.4,20.67-3.68,39.07-16.58,52.88-38.27,37.84-68.9,71.65-135.11,104.82-202.66-10.6,63.81-19.75,127.8-26.74,191.98-9.2,100.99-18.41,198.8-13.81,297.36,4.61,136.99,32.2,269.94,151.79,248.67,68.96-12.26,94.28-106.52,114.94-187.11,27.59-110.7,52.9-220.99,78.22-328.05,43.67-180.86,87.36-361.72,147.16-532.63,6.9-20.47,16.08-41.33,25.29-62.21,0-3.2,4.6-4.02,9.2-4.83l2.3,5.98c0,19.23,2.28,41.28,0,60.91-4.6,58.54-9.2,117.04-13.81,178.76-6.9,58.94-6.9,116.65-4.6,177.11,0,41.68,13.81,64.89,39.1,69.99,6.9,1.97,11.48,1.15,18.41-.08,18.36-3.27,34.47-18.93,45.95-46.63,32.22-66.64,52.93-144.04,73.62-218.23,36.77-125.17,158.65-476.97,232.22-557.39,2.3-3.62,6.9-4.43,9.2-4.83,2.3,2.78,4.61,5.56,4.61,8.8,0,16.03-2.32,32.47-4.61,45.71-9.2,40.08-20.71,83.8-29.89,123.88-62.07,222.59-110.35,452.37-140.28,682.09-11.48,85.37-20.67,173.55-6.9,257.66,9.2,65.67,41.4,133.68,96.59,123.85,32.17-5.71,73.57-51.56,85.08-95.26,34.49-73.44,66.67-149.71,98.88-225.92,40.62-96.68,78.15-194.98,114.89-293.82-6.66,59.13-11.35,117.23-13.82,173.26-2.3,54.91,2.3,108.57,6.9,159.04,13.79,112.97,59.78,204.15,149.44,188.19,52.88-9.4,78.2-68.41,98.89-129.76,25.29-84.63,50.58-166.07,73.57-250.28,36.82-131.56,73.6-259.93,119.58-383.49,29.89-72.62,59.78-145.27,98.86-209.9,4.6-7.26,9.2-17.66,18.43-16.11,9.16,1.57,9.16,14.39,6.86,24.41-2.3,35.69-4.56,68.14-6.86,103.81-4.6,39.27-18.43,70.59-39.12,99.91-78.17,106.87-170.16,293.1-186.22,443.44-2.3,22.82-4.63,45.7,0,67.31,9.16,56.06,41.35,72.77,71.27,67.46,101.19-17.99,197.75-410.22,216.11-541.71,6.93-52.5,23.02-90.61,57.51-115.99,18.39-19.29,36.78-35.39,55.18-54.68,43.72-36.64,89.7-76.87,133.38-116.69,13.79-12.1,13.79-18.49,6.9-36.49-9.2-20.82-16.09-29.19-29.92-26.72-2.3.4-6.86,4.41-11.46,5.23-13.83,5.66-25.29,14.09-36.82,22.57-27.59,20.94-52.88,44.67-80.47,65.59-13.79,12.08-27.59,27.32-43.68,39.82-2.3,3.62-6.9,4.43-9.2,4.83-6.9,1.23-11.5-4.35-13.83-16.76-2.3-15.63-2.3-34.85-4.56-50.46-9.2-52.88-34.49-112.49-80.5-104.31-16.09,2.87-32.15,12.16-48.28,34.25-50.58,53.88-105.76,182.28-135.68,258.13-48.25,120.77-85.07,242.7-126.45,365.45-11.5,40.52-48.31,162.47-68.97,194.99,0,3.2-4.63,4.03-9.23,4.83-2.27.42-4.56-5.56-6.86-8.36v-28.85c4.6-132.26,32.19-265.39,45.98-402.45,0-6.43,2.3-13.23,4.6-20.04,45.98-181.28,87.4-342.51,144.87-519.42,25.29-78.2,22.99-77.8-6.9-146.22-11.53-30-29.92-33.14-52.91-29.04-22.99,4.1-43.68,20.56-57.48,48.68-9.2,14.46-16.13,28.52-22.99,42.53-67.39,137.8-121.14,300.09-159.89,466.95-35.57,83.51-67.73,166.58-97.54,251.99-64.41,184.54-137.98,357.9-216.15,532.07-9.23,17.68-18.41,32.14-27.61,49.8q-2.28,3.62-4.61,4.02c-4.6.83-11.48-4.35-11.48-7.55-2.3-18.81-4.6-34.44-4.6-50.46-2.3-73.32,9.18-145.91,18.41-218.04,18.36-128.28,45.95-261.41,75.87-388.54,27.59-123.5,55.18-243.83,85.07-364.52,9.18-46.51,13.83-89,16.09-134.28,0-57.71-27.57-148.97-75.87-140.38-13.81,2.45-27.59,11.3-41.4,29.79-13.81,15.28-27.59,36.95-39.1,55.03-110.35,192.72-183.94,404.55-255.21,622.4-6.9,26.87-16.11,50.95-25.31,78.23-2.28,3.6-6.88,7.61-9.18,8.03-6.91,1.23-9.21-8-9.21-14.39,4.58-61.72,9.21-123.45,11.51-187.97,4.6-68.12,9.18-136.24,6.88-206.37,0-28.85-4.58-53.66-18.39-70.44-9.2-14.39-20.71-18.78-32.19-16.73-9.18,1.63-16.11,6.06-22.99,13.71-11.51,14.88-18.41,28.9-25.29,42.95-92,215.11-160.98,429.34-225.34,658.73-20.71,71.02-41.4,138.79-62.11,209.8-4.58,13.64-6.88,33.27-20.69,42.12-11.48-17.18-11.48-36.4-6.9-56.44,13.81-66.56,18.41-137.91,25.29-206.45,20.71-147.92,50.6-291.08,80.48-437.44,13.81-79.38,32.2-159.6,43.68-241.78,9.23-75.34-11.48-122.97-41.4-168.93-6.88-8.36-13.78-10.36-22.96-11.93-6.91-1.97-13.81-.75-20.69.48-36.82,6.55-59.81,71.54-68.99,114.82-30.15,112.49-59.28,226.02-85.35,340.3-12.09,21.25-24.04,40.89-34.14,62.42-43.7,91.11-87.4,182.23-133.38,273.72-9.2,17.66-18.38,35.35-29.89,53.44-2.3,3.6-6.9,7.61-9.18,8.03-4.6.82-9.2-4.76-11.53-10.8-2.28-22.01-4.58-44.05-4.58-66.47,0-57.71,2.3-112.6,4.58-170.73,2.33-64.51,6.93-129.43,9.23-193.95,2.3-35.65-6.9-66.07-25.29-88.46-9.23-11.2-18.41-19.16-29.89-17.11-9.23,1.65-16.11,9.26-25.32,20.54-34.49,54.21-66.67,156.09-87.36,217.44-36.8,109.14-71.29,221.06-105.77,332.95-22.99,71.44-48.28,140.04-73.57,211.85-11.51,27.71-23.01,58.56-36.82,86.68-4.58,7.2-6.88,20.44-13.78,21.67-2.32.42-4.61.82-6.91-1.98-9.18-4.75-6.9-21.19-6.9-30.82,2.3-10.03,2.3-16.43,2.3-22.82,6.9-52.55,9.2-104.22,16.11-156.74,9.18-78.57,16.08-159.93,32.19-236.54,22.99-106.66,36.8-214.9,48.28-319.54,11.51-88.56-4.58-159.43-41.4-220.21-18.36-28.77-39.07-34.72-66.66-29.82-36.8,12.98-46,62.69-50.58,108.39-23.01,164.37-55.21,330.37-82.8,495.53-27.59,158.77-46,315.92-52.88,477.41-1.01,18.52-.83,36.83-.25,55.07-3.67-16.97-10.14-32.96-20.32-48.21-9.21-17.59-20.71-18.74-32.22-16.69-2.3.4-6.88,1.23-9.18,1.63-16.11,6.06-22.99,20.13-29.89,40.57-6.91,30.09-13.81,60.14-25.29,87.83-9.21,27.31-18.41,38.53-29.92,40.57-11.48,2.05-22.99-5.5-34.47-25.91-48.3-71.55-80.48-155.55-103.47-250.86-16.11-83.67-16.11-170.23-16.11-253.56,2.3-26.07,9.18-40.08,27.59-46.6,13.81-2.45,27.59-4.9,41.4-7.35,27.59-8.11,52.88-12.61,80.47-20.71,13.81-2.47,23.01-13.73,27.59-33.77,11.53-59.76,0-83.33-43.65-75.57-6.93,1.23-13.81,2.47-20.71,3.68-22.99.9-43.7,4.58-64.39,8.26-18.41.03-25.31-14.76-20.71-38.02,66.69-313.16,202.35-568.1,381.73-785.91q36.77-41.8,27.59-104.27c-9.2-43.25-34.52-57.96-66.71-52.25-9.18,1.63-18.39,6.48-27.59,11.35-82.77,62.79-172.45,194.14-234.55,291.71-112.65,183.53-190.82,386.56-239.1,613.12-4.6,29.64-4.6,61.69-20.71,83.82-9.18,8.03-18.41,12.88-27.59,14.51-11.51,2.03-22.99.88-34.5,2.93-9.2,1.63-16.08-.33-23.01.9-11.48-1.17-18.36-9.56-18.36-25.59,0-28.85,0-54.48,4.58-80.95,16.11-156.74,34.49-313.89,50.6-470.57,4.58-45.7,9.18-94.61,16.09-140.71,9.2-84.97-2.32-156.65-34.5-221.44-13.78-29.64-34.49-29.15-59.78-24.66-20.69,6.88-29.89,24.57-36.8,51.43-6.9,23.69-11.48,46.93-16.08,73.4-32.22,188.42-62.09,376.46-87.4,563.65-11.48,94.99-20.69,189.61-32.17,281.4-2.3,16.44-4.6,32.87-16.11,38.12-36.78,9.75-73.59,19.49-110.35,29.25-9.23,4.85-13.81-3.97-16.11-13.16-2.3-12.41-4.6-24.84-4.6-34.47,4.6-90.55-9.21-174.65-18.39-262.74-11.53-97.36-23.01-194.67-52.9-282.32-9.21-24.01-20.69-47.6-29.87-71.62-36.82-118.47-147.17-303.99-257.56-284.35-94.28,16.76-160.93,118.38-202.33,234.74-13.81,44.1-25.29,91.03-25.29,135.91,0,12.83,2.28,25.24,6.88,34.02,2.3,9.23,11.51,13.98,18.41,12.76Zm3819.02,311.29c-18.39,89.83-45.98,174.86-87.36,262.36-2.3,3.62-6.9,7.63-9.23,4.83-2.3.42-6.86-5.16-6.86-8.4,2.27-13.19,2.27-29.22,4.56-42.47,16.13-83,46.01-155.65,85.1-226.72,2.3-3.6,6.9-4.41,9.2-4.83,2.3-.4,4.6,2.4,6.9,5.21,0,3.2,0,6.4-2.3,10.01Z"/>
  </g>
  <g id="Layer_9" data-name="Layer 9">
    <path class="cls-1" d="m3785.33,2232.42c0,64.47,11.96,155.5,71.94,144.84,15.39-2.73,29.09-12.33,39.38-28.49,47.98-87.36,87.36-168.41,130.18-259.63,10.3-18.56,17.16-38.9,25.72-59.53,1.7-7.46,3.4-14.93,5.1-22.39,1.73-9.88-6.83-32.24-17.13-35.17-1.7-2.1-5.13-1.5-6.83-1.18-5.13.9-10.3,6.58-13.73,12-10.26,18.56-20.52,34.7-29.09,52.93-32.55,67.89-65.14,135.79-99.36,203.98-6.86,13.19-13.73,26.34-22.29,39.78-1.7,2.7-5.13,5.71-6.86,6.03-3.4.6-6.83-3.6-8.56-8.05-1.7-16.43-3.4-32.85-3.4-49.55,0-43.02,1.7-83.9,3.4-127.21,1.73-48.1,5.16-96.44,6.86-144.52,1.7-26.59-5.13-49.28-18.83-65.92-6.86-8.35-13.73-14.29-22.29-12.78-6.83,1.23-12,6.95-18.86,15.33-25.69,40.38-49.65,116.32-65.07,162.03-27.39,81.32-53.11,164.73-78.78,248.1-17.13,53.21-35.95,104.32-54.83,157.85-8.56,20.61-17.13,43.67-27.39,64.59-3.45,5.4-5.15,15.23-10.3,16.16-1.72.3-3.42.6-5.11-1.47-6.86-3.58-5.16-15.81-5.16-22.97,1.72-7.46,1.72-12.26,1.72-17.03,5.15-39.13,6.85-77.65,12.01-116.8,6.85-58.54,11.96-119.17,23.97-176.26,17.13-79.47,27.39-160.1,35.95-238.05,8.6-66.04-3.42-118.85-30.84-164.12-13.68-21.46-29.09-25.89-49.66-22.22-27.39,9.63-34.25,46.71-37.7,80.73-14.56,104.29-34.02,209.41-52.2,314.3-9.52,29.08-19.84,57.46-31.8,85.24-25.69,52.35-58.28,96.36-95.93,131.71-1.73,2.7-3.45,3-5.15,3.3-5.15.93-8.56-3.27-8.56-12.83,3.42-34.02,1.7-69.54-1.72-102.39,0-11.93,0-23.89,3.42-34.05,8.56-32.59,6.86-60.94,5.15-94.08-3.43-78.18-32.54-311.89-113.07-297.56-30.84,5.48-68.51,52.8-89.06,85.1-44.55,60.48-82.25,129.28-119.9,198.09-32.59,55.94-65.12,111.92-97.66,167.85-10.28,18.56-20.57,32.32-30.84,48.5-3.42,5.38-8.56,11.06-13.71,9.61-8.56-3.28-6.83-15.51-6.83-22.67,25.69-167.02,82.22-365.75,195.25-464.69,10.3,2.93,12.01,14.59,17.16,23.24,8.56,15.16,15.41,18.76,29.1,16.31,12-6.93,15.41-26.62,17.14-41.27,1.72-9.86,3.42-19.73,1.72-28.95-20.57-77.57-51.41-110.3-111.34-99.66-169.61,30.17-284.38,437.52-287.8,645.95-.02.66.08,1.22.06,1.87-6.91,22.33-13.98,44.64-22.37,66.6-27.42,86.08-80.5,179.11-147.32,202.97-5.16.92-10.28,4.2-15.43,5.1-27.39,4.88-44.55-11.16-51.38-52.93-15.41-71.32-29.12-140.53-25.71-217.58v-59.74c-1.72-14.01,0-26.26,5.15-39.13,3.42-7.76,6.85-13.14,11.98-11.66,5.15,1.47,10.3,2.93,15.41,4.43,10.3,5.33,22.27,5.56,32.57,3.73,15.43-2.73,32.55-12.94,46.26-29.72,15.38-17.06,30.8-36.52,41.1-57.44,56.53-100.83,42.82-215.45-27.42-279.39-6.86-5.93-15.43-9.18-23.99-12.46-17.11-4.11-32.54-3.77-47.95-1.03-89.06,15.84-142.18,154.3-167.86,261.56-11.33,56.11-16.48,111.19-19.9,167.88-10.9,20.41-21.63,40.79-31.57,61.03-18.83,34.4-37.68,66.44-59.93,96.66-8.6,13.49-17.16,29.34-27.42,31.15-3.42.62-5.16.93-8.56-.87-12.01-9.8-1.72-35.52,1.7-52.85,12.01-85.73,22.27-168.76,25.69-255.36,3.45-62.72-1.72-123.92-27.39-174.3-13.71-28.62-34.25-41.68-56.53-37.73-13.71,2.45-30.84,15.04-44.55,34.22-34.25,41.9-58.23,110.67-77.1,166.58-42.8,122.27-75.35,249.86-107.92,379.88-27.39,105.19-54.81,212.76-82.2,317.97-5.16,20.03-10.28,40.03-17.13,57.98,0,2.4-3.45,5.38-5.15,5.68-1.72.32-5.16-3.85-5.16-6.25,0-7.16,0-16.73,1.75-26.56,13.68-88.43,25.69-176.56,41.1-265.31,20.54-111.14,42.82-222.56,58.23-335.2,5.15-43.9,6.86-87.21,8.56-128.1,1.73-57.64-22.24-93.99-46.25-127.95-6.83-10.73-17.13-13.66-27.41-11.83-18.83,3.35-35.99,20.72-41.1,47.9-3.45,12.58-3.45,26.91-5.15,39.13-10.24,73.31-18.33,146.14-31.06,218.41-6.79,13.11-13.6,28.51-20.38,43.93-56.54,151.01-114.77,307.06-188.46,446.75-25.69,49.95-53.08,95.44-85.62,137.04-29.14,33.84-59.98,63.21-94.23,81.27-5.15,3.28-12,4.5-17.14,5.41-15.43,2.73-27.41-4.66-37.67-24.36-5.15-8.61-8.6-19.96-13.71-30.99-23.97-60.24-39.4-124.37-41.1-198.1-3.45-121.2,8.56-242.78,47.95-359.65,34.25-104.04,87.36-187.54,161.02-236.45,13.71-9.6,29.12-19.49,41.1-21.62,12.01-2.13,24.01.48,35.99,15.09,3.42,4.15,6.86,5.93,10.28,5.33,3.43-.62,8.55-3.93,12-9.3,6.86-8.4,10.28-23.32,5.15-34.37-24.01-74.54-68.52-97.68-128.5-87.01-224.41,39.92-323.75,401.54-323.75,669.06,0,160.03,25.69,298.78,131.91,370.65,30.84,20.81,63.37,29.35,94.21,23.86,121.62-21.62,239.8-257.63,301.48-399.97,20.34-48.51,40.25-96.94,59.95-145.35-34.22,180.21-62.33,363.11-68.45,543.37,0,74.04,6.86,180.31,65.09,201,18.86,3.82,34.29,5.86,49.7,3.13,59.94-10.66,73.65-101.51,83.92-170.2,10.31-47.21,18.86-96.53,29.14-143.72,29.12-138.93,59.96-275.8,89.1-414.75,27.39-131.46,92.48-420.13,159.3-529.93,8.56-13.44,18.83-34.4,30.84-36.54,1.7-.3,5.11-.92,6.85,1.18,13.68,4.71,11.98,31.29,13.68,50.1,1.75,33.15-3.4,67.49-6.81,101.56-6.86,94.38-23.99,188.19-42.85,279.9-3.42,19.73-10.26,35.27-25.69,42.78-54.81,31.24-137.04,263.24-137.04,356.4,0,47.75,27.42,71.57,59.96,65.77,12.01-2.13,22.27-8.76,34.25-22.82,8.56-11.08,17.16-24.54,25.72-38.02,29.09-55.33,47.95-116.02,66.79-179.08,8.56-34.94,17.13-67.52,25.67-102.51,5.16-31.95,18.88-34.4,37.7-37.75,34.29-6.1,59.96-34.55,85.65-72.54,12.52-17.67,23.81-36.62,34.58-56.09,2.74,24.36,6.39,48.4,11.75,71.7,6.85,34.64,18.83,68.32,35.99,96.33,37.65,69.74,99.33,99.39,161,88.41,35.99-6.4,71.94-27.12,104.52-61.59,20.52-25.14,37.65-52.1,53.08-83.48,17.53-33.37,31.74-68.47,44.54-104.42,17.94,35.15,47.66,55.45,78.83,58.59,6.86,1.18,12.01.27,18.84-.95,17.16-3.05,32.57-15.36,44.55-38.98,10.26-18.54,20.56-37.1,29.12-55.36,49.68-101.96,99.38-203.97,149.04-305.96,39.4-76.27,85.65-151.37,138.76-211,6.83-3.58,11.98-9.3,18.83-12.88,5.16-3.32,10.28.53,12.01,9.8,0,9.56,1.72,21.19,0,33.45-8.6,173.5-30.84,342.28-54.81,513.74-3.45,14.94-8.6,25.42-20.57,27.54-10.26,1.83-20.56,3.67-30.84,5.5-48.47,8.61-94.09,16.73-136.88,44.02-33.66,21.47-53.26,46.1-68.67,66.57-86.4,114.79-126.93,327.95-132.97,360.72,26.73,4.68,61.32,66.12,61.32,66.12,0,0,11.83-111.18,29.82-176.44,31.83-142.32,140.94-270.96,165.33-286.71,24.39-15.75,66.63-28.55,66.63-28.55,0,0,13.67-2.95,20.56-3.65,13.62-1.38,20.43-2.07,24.53.69,16.75,11.27-5.68,70-5.68,70h0c-3.6,15.13-8.29,27.73-8.29,27.73,0,0-61.34,275.3-143.61,418.68-9.22,16.07-18.67,31.63-28.31,46.7,6.51-.95,50.47-6.61,81.58,23.78,11.6,11.33,17.59,23.95,20.76,32.87,116.02-131.08,156.13-243.65,170.39-324.96,17.36-99.02,47.01-195.76,61.66-295.21,6.86-46.6,20.54-77.7,51.38-104.69,35.14-28.7,64.02-64.08,88.34-104.37-11.47,82.9-19.53,165.85-23.15,250.44-1.72,31.35,0,62.11,3.43,92.55,5.16,25.34,15.43,45,30.84,56.59,20.54,17.86,44.52,23.12,70.24,18.56,8.56-1.53,15.43-2.75,23.99-6.63,29.12-9.98,47.95-41.98,63.37-78.18,3.42-12.53,8.56-23.01,13.71-35.85,13.68-43.05,27.39-83.72,41.1-126.76,41.12-138.66,80.5-277.05,119.88-415.43,1.73-5.06,5.16-8.08,6.86-8.38,5.16-.92,6.86,3.55,5.16,11.01-3.47,46-3.47,91.41-1.7,136.48Zm-1312.33-17.43c3.43-50.76,47.96-130.35,73.67-163.58,3.42-5.38,10.28-11.38,13.68-9.6,6.86,1.18,8.56,12.81,10.31,22.06v7.16c-3.45,62.72-30.84,136.86-73.69,168.38-1.7.3-5.11,3.27-6.85,3.58-10.28,1.82-20.54-10.68-17.13-28.01Z"/>
  </g>
  <g id="Layer_8" data-name="Layer 8">
    <path class="cls-1" d="m3399.62,371.23c7.33-31.26,15.93-60.78,27.32-87.19-310.94-146.98-658.31-229.51-1025.07-229.51-76.27,0-151.59,3.96-226.04,10.92-5.55,27.33-15.96,61.01-36.49,95.05,86.21-9.75,173.71-15.26,262.53-15.26,357.34,0,695.69,81.2,997.75,225.99Z"/>
  </g>
  <g id="Layer_7" data-name="Layer 7">
    <path class="cls-1" d="m533.06,3895.02c8.14-13.82,14.59-32.35,20.21-51.45-290.39-386.36-462.57-866.63-462.57-1387.16,0-648.46,267.42-1234.19,697.55-1653.91-3.65-35.35-9.25-75.54-15.82-110.2C297.6,1131.1,0,1758.89,0,2456.41c0,558.05,190.84,1071.22,510.11,1479,7.19-13.17,14.81-26.57,22.95-40.39Z"/>
  </g>
  <g id="Layer_6" data-name="Layer 6">
    <path class="cls-1" d="m1454.66,4564.43c-.58,32.25,1.04,65.39,4.85,101.73,275.03,117.44,576.54,184.43,892.96,190.85-13.38-33.32-20.72-64.85-24.37-91.43-310.49-9.84-605.49-80.56-873.44-201.16Z"/>
  </g>
  <g id="Layer_5" data-name="Layer 5">
    <path class="cls-1" d="m4208.23,2826.51c-6.86,1.23-11.46,2.03-16.06,6.06-22.99,16.91-41.42,74.67-32.22,105.09,9.23,40.03,43.68,65.96,75.87,60.24,36.82-6.56,50.61-37.85,39.12-83.9-6.9-34.02-22.99-56.81-39.12-79.57-6.86-8.41-18.36-9.56-27.59-7.93Z"/>
  </g>
  <g id="Layer_4" data-name="Layer 4">
    <path class="cls-1" d="m4383.59,1099.5c-13.57,33.43-30.16,64.4-47.28,92.76,237.92,363.33,376.73,797.42,376.73,1264.15,0,301.98-58.37,590.15-163.84,854.45-12.5,28.03-68.59,153.21-109.15,234.55-2.56,4.77-5.2,9.48-7.79,14.23-12.01,19.7-34.12,50.55-43.97,65.98-2.3,3.65-12.19,7.66-14.49,8.06-4.56.83-9.16-4.8-11.5-10.76-2.3-22.06-4.6-44.08-4.6-66.51,0-57.71,2.3-112.59,4.6-170.7,2.33-64.54,6.93-129.45,9.2-193.97,2.3-35.7-6.86-66.12-25.29-88.46-9.2-11.18-18.39-19.18-29.89-17.14-9.2,1.63-16.09,9.3-25.29,20.52-34.49,54.21-66.67,156.14-87.4,217.49-36.75,109.14-71.27,221.03-105.76,332.95-22.99,71.4-48.28,140.01-73.57,211.85-11.53,27.66-22.99,58.56-36.82,86.66-4.6,7.23-6.86,20.46-13.76,21.69-2.3.4-4.63.82-6.93-1.97-9.2-4.8-6.9-21.24-6.9-30.84,2.3-10.05,2.3-16.44,2.3-22.87,6.9-52.5,9.23-104.19,16.13-156.7,9.16-78.57,16.09-159.93,32.15-236.52,23.02-106.67,36.82-214.9,48.31-319.52,11.5-88.6-4.6-159.47-41.42-220.21-18.36-28.79-39.05-34.75-66.64-29.84-36.82,12.98-46.01,62.69-50.61,108.36-15.85,113.3-36.09,227.37-56.16,341.41-6.73,24.63-13.6,49.62-19.67,75.98-18.36,73.8-39.05,147.99-66.64,220.19-36.82,115.54-108.12,240.4-197.79,272.37-6.91,1.23-13.81,5.7-20.69,6.91-36.8,6.55-59.81-15.01-68.99-71.09-20.71-95.68-39.1-188.57-34.49-291.98v-80.13c-2.33-18.81,0-35.25,6.9-52.51,4.58-10.45,9.18-17.66,16.11-15.68,6.88,1.97,13.78,3.97,20.66,5.95,13.81,7.13,29.92,7.5,43.7,5.05,20.71-3.68,43.7-17.39,62.11-39.9,20.69-22.91,41.37-49.03,55.18-77.12,75.89-135.31,57.48-289.1-36.82-374.93-9.18-7.96-20.66-12.34-32.17-16.69-23.01-5.55-43.7-5.06-64.41-1.38-119.53,21.26-190.82,207.03-225.34,351.02-16.06,79.78-22.99,157.95-27.59,238.9-2.19,41.85-1.6,83.19,1.48,123.76-2.05,4.93-3.88,9.94-6,14.85-34.49,70.25-78.18,129.33-128.76,176.78-2.3,3.62-4.6,4.02-6.9,4.43-6.91,1.22-11.51-4.35-11.51-17.18,4.6-45.71,2.3-93.38-2.3-137.44,0-16.03,0-32.05,4.6-45.66,11.51-43.73,9.21-81.8,6.9-126.23-4.6-104.99-43.67-418.56-151.75-399.34-41.37,7.35-91.96,70.82-119.58,114.19-59.76,81.17-110.35,173.5-160.93,265.86-43.7,75.09-87.4,150.16-131.1,225.24-13.78,24.91-27.59,43.38-41.37,65.06-4.58,7.21-11.51,14.88-18.39,12.91-11.5-4.4-9.2-20.82-9.2-30.42,34.49-224.11,110.35-490.83,262.11-623.61,13.81,3.93,16.11,19.56,23.01,31.15,11.51,20.41,20.69,25.17,39.1,21.91,16.11-9.26,20.69-35.74,22.99-55.38,2.3-13.23,4.6-26.47,2.3-38.88-27.59-104.09-68.99-148.01-149.46-133.7-196.44,34.94-338.02,446.72-376.1,738.71-49.19,119.94-128.46,293.28-207.86,323.59-23.01,7.3-41.37-11.86-39.07-44.33,2.28-32.45,6.88-62.12,11.48-91.8,22.99-161.17,27.59-322.25,16.11-480.47-4.6-79.32-18.41-163.43-62.11-210.13-16.08-19.61-32.19-26.34-46-23.87-18.36,3.27-36.77,22.56-50.58,57.08-34.47,70.24-46,216.53-46,293.46-2.28,16.43-2.28,32.45-4.58,48.9-2.3,6.8-4.6,10.41-9.2,11.23,0,0-2.28.4-4.58-2.38-6.93-5.16-13.81-13.58-18.41-22.36-16.11-22.79-27.59-30.37-43.7-27.51-9.18,1.63-18.39,6.5-29.89,14.94-18.39,16.09-36.8,41.8-48.28,66.29-39.1,103.12-59.78,218.98-78.18,328.05-2.28,22.82-4.58,45.66-16.09,63.74-32.19,57.03-66.71,88.8-114.99,97.38-27.59,1.72-55.18.22-85.07-.9-20.69-2.72-22.99-5.5-22.99-40.78-2.3-60.48,11.51-120.63,18.39-179.58,11.5-98.19,27.59-197.22,43.7-296.25,9.2-56.11,2.3-106.21-22.99-146.59-16.11-25.96-29.92-33.12-52.91-29.04-52.88,15.81-82.77,133.35-96.54,196.67-24.23,93.92-42.91,188.51-56.72,283.53-28.6,106.55-57.49,215.61-92.69,320.04-16.09,44.55-101.16,264.83-131.05,270.14-4.63.82-11.51-7.58-13.81-20.01-2.3-9.18-4.6-18.41-6.9-27.62-4.61-66.49-11.51-135.78-11.51-203.12,0-211.55,18.41-426.36,36.82-641.2,6.88-84.57,18.36-173.16,22.99-260.53,2.3-77.34-13.81-138.58-43.7-190.97-20.69-34.77-46-52.73-73.59-47.83-20.69,3.68-43.7,23.81-64.39,53.14-20.71,32.52-39.07,67.86-57.48,103.17-50.58,108.36-89.68,224.31-128.76,340.24-48.28,149.62-96.58,302.46-151.79,446.92-25.29,62.17-50.58,124.38-82.77,178.19-11.48,21.26-25.29,39.75-39.1,58.23-4.6,7.25-9.18,11.26-13.78,12.08-9.18,1.63-13.81-7.16-16.11-22.79-13.78-93.71,0-189.12,27.59-283.75,23.01-32.95,20.71-61.39-2.3-86.16-2.28-5.98-4.58-12.01-6.88-17.99-6.9-21.24-18.41-25.59-34.49-25.92-48.28,8.58-64.39,17.84-82.8,88.46-2.28,6.8-2.28,10-4.58,16.84-16.11,89.4-18.41,176.36-11.48,264.86,11.48,100.56,57.46,185.34,137.94,171.03,59.79-10.65,105.76-92.55,135.68-165.18,32.19-69.82,62.06-142.48,87.36-217.48,48.28-149.64,96.58-299.26,144.86-445.7,11.51-34.1,80.47-241.88,103.47-245.98,4.61,2.38,6.91,5.18,6.91,8.38,0,16.03,0,32.05-2.3,45.28-52.91,310.72-73.57,631.74-73.57,942.68,6.88,171.86,39.07,342.44,188.52,335.11,62.11-11.05,96.58-65.26,121.87-143.49,39.69-92.8,72.48-189.33,104.38-288.25-.87,33.29-1.29,66.61-.97,99.96,0,121.82,2.3,451.58,131.05,428.67,32.22-5.73,59.81-33.09,64.41-81.98,2.3-19.64,0-41.65-2.3-63.71-11.51-116.54-6.9-235.97-6.9-354.56,2.3-13.24,2.3-26.07,4.6-36.1,2.3-19.64,11.48-34.1,25.29-36.55,18.41-3.28,39.07-6.95,57.48-3.8,16.11.33,29.89,1.08,46-1.78,20.69-3.68,41.4-10.56,59.79-23.46,6.9-4.43,16.08-9.26,27.59-14.51,6.9,21.21,4.6,40.83,4.6,56.86,2.3,41.28,2.3,82.97,4.6,124.2,9.18,149.04,62.09,267.84,172.45,289.9,11.53,1.15,25.31,1.9,36.82-.15,43.67-7.76,85.07-43.98,112.65-122.58,20.69-61.39,39.1-125.58,55.18-192.54,9.21-46.53,18.39-93.05,29.9-139.98,4.6-23.24,6.9-30.04,16.08-31.67,4.6-.82,11.51-2.05,18.41-.08,16.11,3.53,32.19,3.88,48.3,1.02,39.1-6.96,75.87-35.92,108.06-80.1,6.91-10.86,13.81-18.48,20.69-29.34,21.53-30.08,40.48-62.1,57.86-95.27,18.28,73.47,68.29,115.73,121.39,121.11,9.23,1.55,16.11.33,25.31-1.3,22.99-4.1,43.68-20.61,59.79-52.33,13.78-24.87,27.59-49.78,39.07-74.25,66.71-136.88,133.4-273.75,200.08-410.63,52.88-102.36,114.95-203.13,186.24-283.15,9.18-4.83,16.09-12.46,25.29-17.33,6.88-4.43,13.81.78,16.11,13.16,0,12.83,2.28,28.46,0,44.88-11.53,232.85-41.4,459.35-73.59,689.45-4.6,20.04-11.51,34.09-27.59,36.95-13.81,2.47-27.59,4.91-41.4,7.36-101.18,17.99-193.15,34.35-275.92,148.47-94.28,128.95-154.09,283.82-172.46,457-11.51,120.63,16.08,211.88,82.77,273.75,50.6,45.48,114.99,59.69,177.04,48.65,193.17-34.35,280.55-239.02,344.93-474.84,36.8-131.56,62.09-264.28,82.8-396.17,9.18-62.54,27.59-104.29,68.99-140.51,52.47-42.86,94.81-96.56,129.5-158.49,2.01,10.61,3.67,21.37,6.07,31.81,9.18,46.45,25.29,91.66,48.28,129.26,50.6,93.56,133.36,133.35,216.16,118.62,48.28-8.58,96.58-36.44,140.23-82.65,27.64-33.77,50.66-69.9,71.32-112.04,11.83-22.52,22.49-45.64,32.42-69.18-8.92,79.35-15.24,159.04-18.69,239.84-2.3,42.05,0,83.33,4.6,124.18,6.93,34.02,20.69,60.44,41.42,75.97,27.59,23.96,59.78,31.02,94.26,24.89,11.5-2.03,20.72-3.68,32.19-8.93,39.12-13.34,64.41-56.33,85.1-104.86,4.6-16.84,11.5-30.89,18.36-48.15,18.43-57.78,36.82-112.34,55.21-170.1,55.18-186.12,108.06-371.83,160.97-557.54,2.3-6.8,6.86-10.85,9.2-11.26,6.9-1.23,9.2,4.8,6.9,14.79-4.6,61.74-4.6,122.65-2.3,183.14,0,86.56,16.09,208.7,96.59,194.37,55.42-6.29,102.54-80.41,116.36-102.08,48.31-83.68,91.56-170.62,129.7-260.26.76-1.63,1.44-3.09,2.22-4.75.66-1.18,1.01-2.62,1.55-3.9,120.28-285.81,186.98-599.68,186.98-929.3,0-503.61-155.27-970.8-420.16-1356.91Zm-918.01,2272.58c4.6-68.12,64.37-174.91,98.88-219.54,4.6-7.21,13.78-15.28,18.41-12.89,9.18,1.6,11.48,17.21,13.78,29.64v9.6c-4.6,84.15-41.4,183.66-98.88,225.92-2.3.42-6.9,4.46-9.2,4.86-13.81,2.47-27.59-14.34-22.99-37.58Zm-1499.05,757.04c-20.69,83.82-66.69,252.26-110.35,320.94-2.33,6.81-6.91,10.86-9.21,11.26-4.6.82-9.2-1.6-11.48-7.58-4.63-15.21-9.23-30.42-11.53-46.03-9.18-59.28-18.39-118.55-16.06-173.45,0-80.13,6.88-151.89,16.06-224.03,11.53-78.98,25.31-161.57,39.12-244.17,2.28-10.03,4.58-20.04,13.78-21.67,9.21,1.57,9.21,11.16,9.21,20.79,4.6,24.84,6.88,53.24,11.48,78.08,9.21,75.3,29.89,145.36,62.11,206.93,13.78,23.21,13.78,48.83,6.88,78.92Zm50.58-259.03c-2.28,10.03-4.58,20.04-6.88,30.07,0,3.2-4.6,7.21-6.9,7.63-4.61.82-9.21,1.63-9.21-1.57-6.88-14.79-11.48-30-13.78-45.63-18.41-86.48-25.29-175-25.29-267.96-4.63-66.47,4.6-135.46,16.08-204.8,4.58-16.84,6.88-30.09,11.51-43.73,2.3-10.01,9.18-20.86,16.08-18.89,2.3-.4,9.21,4.8,9.21,11.2,6.9,24.42,13.78,48.83,16.08,77.27,13.81,148.22,16.11,301.68-6.9,456.41Zm846.09,307.89c-34.49,176.04-131.06,632.38-292.03,661-50.6,9-96.58-27.71-112.65-104.97-9.23-40.05-9.23-84.93-4.6-130.6,25.29-235.3,147.16-462.13,319.62-508.83,11.48-2.05,22.99-4.1,36.77-6.55,11.53-2.05,20.71-3.68,27.59-4.91,46-8.16,43.7-1.37,25.31,94.86Z"/>
  </g>
  <g id="Layer_3" data-name="Layer 3">
    <path class="cls-1" d="m3002.76,4688.2c-5.92,27.23-21.63,61.97-50.81,106.05,350.46-82.16,671.07-241.37,943.76-458.22-40.35-2.08-78.91-12.05-108.2-30.7-231.78,173.9-497.06,305.6-784.75,382.88Z"/>
  </g>
</svg>