<?xml version="1.0" encoding="utf-8"?>
<!-- Generator: Adobe Illustrator 28.2.0, SVG Export Plug-In . SVG Version: 6.00 Build 0)  -->
<svg version="1.1" id="Layer_1" xmlns="http://www.w3.org/2000/svg" xmlns:xlink="http://www.w3.org/1999/xlink" x="0px" y="0px"
	 viewBox="-5 -5 180 180" xml:space="preserve">
<style type="text/css">
	.st0{fill:#FFF;stroke:#f1ebe8;stroke-width:4}
	.st1{fill:#dbc6d4;}
	.st2{fill:#111;}
</style>
<circle class="st1" cx="84.3" cy="84.5" r="72"/>
<g>
	<path class="st0" d="M20.3,20.8c0.2,0,0.5-0.2,0.6-0.4c0.2-0.6,0.5-1.3,0.6-2c1-2.7,2.3-5.2,4.3-6.8c0.4-0.4,0.7-0.6,0.9-0.6
		c0.4-0.1,0.6,0.2,1,0.9c2.5,4.9,3.8,9.5,4.5,15.8c0.6,3.7,0.8,7.5,0.6,11.5c-0.2,1.7-0.2,1.7-1.4,2.1c-0.9,0.4-1.7,0.6-2.4,1
		c-0.7,0.3-1,1.2-0.8,2c0.3,1,0.9,1.7,1.7,1.7c0.6-0.1,1.1-0.2,1.7-0.3c0.4-0.1,0.6,0.2,0.6,0.8c0,5.9-4.9,20.1-7.1,25.6
		c-0.4,1.1-1,2.3-1.7,3.1c-0.2,0.3-0.5,0.4-0.7,0.5c-0.3,0.1-0.6-0.1-0.8-0.6c-0.4-0.9-0.5-2.1-0.5-3c0.2-2.9,0.5-5.8,2.4-7.7
		c0.3-0.3,0.2-0.6,0.1-0.8c-0.3-0.5-0.6-0.7-1-0.6c-0.6,0.1-1.4,1-1.7,1.7c-1.4,2.7-2.3,5.7-2.2,8.9c0,3.6,1.7,5.7,4.2,5.5
		c3.9-0.7,6.7-4,8.8-8.8c3.5-7.9,5.7-16.2,6.8-25c0.2-1.2,0.5-1.6,1.3-1.9c0.9-0.3,1.8-0.4,2.7-0.6c0.9-0.2,1,0,1,1.2
		c-0.2,3.2-0.2,6.4-0.4,9.5c-0.1,2.2-0.2,4.3-0.2,6.5c0.1,3.3,0.2,6.8,0.3,10.1c0.1,0.9,0.2,1.6,0.3,2.4c0.1,0.5,0.2,0.9,0.6,1.1
		c0.2,0.2,1,0.8,1.7,0.9c1.1-0.7,1.6-1.7,2.6-2.1c0.1-0.6,0.2-0.9,0.2-1.2c0.1-2.8,0.3-5.6,0.6-8.2c0.1-2.1,0.3-4.2,0.3-6.3
		c0-4.3,0.2-8.7,0.5-13.2c0-0.4,0-0.8,0.1-1.2c0.1-0.8,0.4-1.2,1-1.4c0.2-0.2,0.5-0.2,0.7-0.2c0.3-0.1,0.6-0.1,0.7-0.1
		c1.3-0.2,1.3,0.2,1.5,2.5c0.2,6.8,3.1,14.7,7,18.2c1.2,1.2,2.5,1.6,4.1,1.7c1.9-0.3,3.2-1.2,3.8-4c0.1-0.6,0.2-1,0.3-1.6
		c0.1-0.3,0.1-0.7,0.2-1c0,0.3,0,0.6,0.1,1c0.2,1.2,0.7,2.1,1.4,2.5c0.9,0.8,2,1.1,3.1,0.9c0.4-0.1,0.7-0.1,1.1-0.3
		c1.3-0.5,2.2-1.9,2.8-3.5c0.2-0.6,0.4-1.1,0.6-1.7c0.6-2,1.3-3.7,1.9-5.7c1.9-6.3,3.6-12.4,5.4-18.7c0.1-0.2,0.2-0.4,0.3-0.4
		c0.2,0,0.3,0.2,0.2,0.5c-0.2,2.1-0.2,4.1-0.1,6.2c0,2.9,0.6,7,3.2,6.6c0.7-0.1,1.3-0.6,1.8-1.3c1.3-2.3,2.4-4.5,3.5-6.8
		c-0.4,2.2-0.7,4.3-0.9,6.5c-0.3,3.4-0.6,6.7-0.5,10c0.2,4.6,1.1,9.1,5.1,8.3c2.3-0.4,3.1-3.6,3.8-6.3c0.9-3.7,1.8-7.4,2.6-11
		c1.5-6.1,2.9-12.1,4.9-17.9c0.2-0.7,0.6-1.4,0.9-2.1c0-0.1,0.2-0.1,0.3-0.2l0.1,0.2c0,0.7,0.1,1.4,0,2.1c-0.2,2-0.3,3.9-0.5,6
		c-0.2,2-0.2,3.9-0.2,6c0,1.4,0.5,2.2,1.3,2.3c0.2,0.1,0.4,0,0.6,0c0.6-0.1,1.2-0.6,1.6-1.6c1.1-2.3,1.8-4.8,2.4-7.3
		c1.3-4.2,5.3-15.9,7.8-18.7c0.1-0.1,0.2-0.2,0.3-0.2c0.1,0.1,0.2,0.2,0.2,0.3c0,0.6-0.1,1.1-0.2,1.6c-0.3,1.4-0.7,2.8-1,4.1
		c-2.1,7.4-3.7,15.2-4.7,22.9c-0.4,2.8-0.7,5.8-0.2,8.6c0.3,2.3,1.4,4.5,3.2,4.1c1.1-0.2,2.4-1.8,2.8-3.2c1.2-2.4,2.3-5,3.3-7.5
		c1.4-3.2,2.6-6.6,3.8-9.9c-0.2,2-0.4,3.9-0.5,5.8c-0.1,1.9,0.1,3.6,0.2,5.4c0.5,3.8,2,6.8,5,6.3c1.8-0.3,2.6-2.3,3.3-4.3
		c0.9-2.8,1.7-5.6,2.4-8.4c1.3-4.4,2.4-8.7,4-12.8c1-2.4,2-4.9,3.3-7c0.2-0.3,0.3-0.6,0.6-0.6s0.3,0.5,0.2,0.8
		c-0.1,1.2-0.2,2.3-0.2,3.5c-0.2,1.3-0.6,2.3-1.3,3.3c-2.6,3.6-5.7,9.8-6.3,14.9c-0.1,0.8-0.2,1.6,0,2.3c0.3,1.9,1.4,2.4,2.3,2.3
		c3.4-0.6,6.7-13.8,7.2-18.2c0.2-1.8,0.8-3,2-3.9c0.6-0.7,1.3-1.2,1.9-1.9c1.5-1.3,3-2.5,4.5-3.9c0.5-0.4,0.5-0.6,0.2-1.2
		c-0.3-0.7-0.6-1-1-0.9c-0.1,0-0.2,0.2-0.4,0.2c-0.5,0.2-0.9,0.5-1.3,0.8c-0.9,0.7-1.8,1.5-2.7,2.3c-0.5,0.4-0.9,0.9-1.5,1.4
		c-0.1,0.1-0.2,0.2-0.3,0.2c-0.2,0-0.4-0.1-0.5-0.6s-0.1-1.2-0.2-1.7c-0.3-1.8-1.2-3.8-2.7-3.5c-0.6,0.1-1.1,0.4-1.7,1.2
		c-1.7,1.8-3.5,6.1-4.6,8.6c-1.7,4-2.8,8.1-4.2,12.2c-0.4,1.4-1.7,5.5-2.3,6.6c0,0.1-0.2,0.1-0.3,0.2c-0.1,0-0.2-0.2-0.2-0.3v-1
		c0.2-4.4,1.1-8.9,1.6-13.5c0-0.2,0.1-0.5,0.2-0.7c1.6-6.1,2.9-11.4,4.9-17.4c0.9-2.6,0.8-2.6-0.2-4.9c-0.4-1-1-1.1-1.8-1
		s-1.5,0.7-2,1.7c-0.3,0.5-0.6,1-0.8,1.5c-2.3,4.6-4,10.1-5.4,15.7c-1.2,2.8-2.3,5.6-3.2,8.4c-2.2,6.2-4.6,12-7.2,17.8
		c-0.3,0.6-0.6,1.1-0.9,1.7c-0.1,0.1-0.1,0.1-0.2,0.1c-0.2,0-0.4-0.1-0.4-0.3c-0.1-0.6-0.2-1.2-0.2-1.7c-0.1-2.4,0.3-4.9,0.6-7.3
		c0.6-4.3,1.6-8.8,2.5-13c0.9-4.1,1.9-8.2,2.8-12.2c0.3-1.6,0.5-3,0.6-4.5c0-2-0.9-5-2.5-4.7c-0.5,0.1-0.9,0.4-1.4,1
		c-0.5,0.5-0.9,1.3-1.3,1.9c-3.7,6.5-6.2,13.6-8.5,20.8c-0.2,0.9-0.6,1.7-0.9,2.6c-0.1,0.1-0.2,0.3-0.3,0.3c-0.2,0-0.3-0.3-0.3-0.5
		c0.2-2.1,0.3-4.1,0.4-6.3c0.2-2.3,0.3-4.6,0.2-6.9c0-1-0.2-1.8-0.6-2.3c-0.3-0.5-0.7-0.6-1.1-0.6c-0.3,0.1-0.6,0.2-0.8,0.5
		c-0.4,0.5-0.6,1-0.9,1.5c-3.1,7.2-5.4,14.4-7.5,22.1c-0.7,2.3-1.4,4.7-2.1,7c-0.2,0.5-0.2,1.1-0.7,1.4c-0.4-0.6-0.4-1.2-0.2-1.9
		c0.5-2.3,0.6-4.6,0.9-6.9c0.7-5,1.7-9.8,2.7-14.7c0.5-2.6,1.1-5.4,1.5-8.1c0.3-2.5-0.4-4.1-1.4-5.7c-0.2-0.3-0.5-0.4-0.8-0.4
		c-0.2-0.1-0.5,0-0.7,0c-1.3,0.2-2,2.4-2.3,3.8c-1,3.8-2,7.5-2.8,11.4c-0.4,0.7-0.8,1.4-1.2,2.1c-1.5,3-2.9,6.1-4.5,9.2
		c-0.3,0.6-0.6,1.2-1,1.8c-0.1,0.1-0.2,0.3-0.3,0.3c-0.2,0-0.3-0.2-0.4-0.4c-0.1-0.8-0.2-1.5-0.2-2.3c0-2,0.1-3.8,0.2-5.7
		c0.1-2.2,0.2-4.3,0.3-6.6c0.1-1.2-0.2-2.3-0.9-2.9c-0.3-0.4-0.6-0.7-1-0.6c-0.3,0.1-0.6,0.3-0.9,0.7c-1.2,1.9-2.3,5.2-2.9,7.3
		c-1.3,3.6-2.3,7.4-3.5,11.2c-0.8,2.3-1.7,4.7-2.4,7.1c-0.4,0.9-0.8,2-1.3,2.9C76,51,76,51.4,75.7,51.4c-0.1,0-0.2,0-0.2-0.1
		c-0.3-0.2-0.2-0.7-0.2-1.1c0.1-0.3,0.1-0.6,0.1-0.8c0.2-1.8,0.3-3.5,0.6-5.3c0.3-2.6,0.6-5.4,1.1-7.9c0.8-3.6,1.3-7.2,1.7-10.8
		c0.4-2.9-0.2-5.4-1.4-7.4c-0.6-1-1.3-1.2-2.3-1c-1.3,0.4-1.6,2.1-1.7,3.6c-0.8,5.5-1.9,11.1-2.7,16.6c-0.9,5.3-1.6,10.6-1.8,16
		c0,0.6,0,1.3,0,1.9c-0.1-0.6-0.3-1.1-0.7-1.7c-0.3-0.6-0.7-0.6-1.1-0.6c-0.1,0-0.2,0-0.3,0.1c-0.6,0.2-0.8,0.7-1,1.4
		c-0.2,1-0.5,2.1-0.9,2.9c-0.3,0.9-0.6,1.3-1,1.4c-0.4,0.1-0.8-0.2-1.2-0.9c-1.7-2.4-2.7-5.2-3.4-8.4c-0.6-2.8-0.6-5.7-0.6-8.5
		c0.1-0.9,0.3-1.4,0.9-1.6c0.5-0.1,0.9-0.2,1.4-0.3c0.9-0.3,1.8-0.4,2.7-0.7c0.5-0.1,0.8-0.5,0.9-1.2c0.4-2,0-2.8-1.5-2.5
		c-0.2,0-0.5,0.1-0.7,0.1c-0.8,0-1.5,0.2-2.2,0.3c-0.6,0-0.9-0.5-0.7-1.3c3-10.7,7.5-19.3,13.6-26.5c0.8-1,1.2-2.1,0.9-3.5
		c-0.3-1.5-1.2-2-2.3-1.8c-0.3,0.1-0.6,0.2-0.9,0.4C68.1,4.3,65,8.7,63,12c-3.8,6.2-6.4,13-8,20.5c-0.2,1-0.2,2.1-0.7,2.8
		c-0.3,0.3-0.6,0.4-0.9,0.5c-0.4,0.1-0.8,0-1.2,0.1c-0.3,0.1-0.6,0-0.8,0c-0.4,0-0.6-0.3-0.6-0.9c0-1,0-1.9,0.2-2.7
		c0.6-5.3,1.2-10.6,1.7-15.8c0.2-1.6,0.3-3.1,0.6-4.7c0-2.6-0.4-5-1.5-7.1c-0.5-1-1.2-1-2-0.9c-0.7,0.2-1,0.8-1.3,1.8
		c-0.2,0.8-0.4,1.6-0.6,2.4c-1.1,6.4-2.1,12.6-2.9,18.9c-0.4,3.2-0.7,6.4-1.1,9.4c-0.1,0.6-0.2,1.1-0.6,1.3c-1.3,0.3-2.4,0.7-3.7,1
		c-0.3,0.2-0.5-0.1-0.6-0.5s-0.2-0.9-0.2-1.2c0.2-3-0.3-5.9-0.6-8.8c-0.4-3.2-0.8-6.6-1.8-9.5c-0.3-0.8-0.7-1.6-1-2.4
		c-1.3-4-4.9-10.2-8.6-9.5c-3.1,0.6-5.4,4-6.8,7.8c-0.5,1.5-0.9,3-0.9,4.6c0,0.4,0.1,0.9,0.2,1.2C19.8,20.7,20.1,20.9,20.3,20.8
		L20.3,20.8z M148.4,31.2c-0.6,3-1.6,5.9-2.9,8.8c-0.1,0.1-0.2,0.3-0.3,0.2c-0.1,0-0.2-0.2-0.2-0.3c0.1-0.5,0.1-1,0.2-1.5
		c0.6-2.7,1.6-5.2,2.8-7.6c0.1-0.1,0.2-0.2,0.3-0.2s0.2,0.1,0.2,0.2C148.4,31.1,148.4,31.1,148.4,31.2L148.4,31.2z"/>
	<path class="st0" d="M131,76.8c0,2.2,0.4,5.2,2.4,4.9c0.5-0.1,1-0.4,1.4-1c1.6-2.9,2.9-5.7,4.4-8.7c0.3-0.6,0.6-1.3,0.9-2l0.2-0.8
		c0.1-0.3-0.2-1.1-0.6-1.2c-0.1-0.1-0.2,0-0.2,0c-0.2,0-0.3,0.2-0.5,0.4c-0.3,0.6-0.7,1.2-1,1.8c-1.1,2.3-2.2,4.6-3.3,6.8
		c-0.2,0.5-0.5,0.9-0.8,1.4c-0.1,0.1-0.2,0.2-0.2,0.2c-0.1,0-0.2-0.1-0.3-0.3c-0.1-0.6-0.1-1.1-0.1-1.7c0-1.5,0.1-2.8,0.1-4.3
		c0.1-1.7,0.2-3.2,0.2-4.9c0.1-0.9-0.2-1.7-0.6-2.3c-0.2-0.3-0.5-0.5-0.8-0.4c-0.2,0-0.4,0.2-0.6,0.5c-0.9,1.4-1.7,3.9-2.2,5.4
		c-0.9,2.7-1.8,5.5-2.6,8.3c-0.6,1.8-1.2,3.5-1.9,5.3c-0.3,0.7-0.6,1.5-0.9,2.2c-0.1,0.2-0.2,0.5-0.3,0.6c-0.1,0-0.1,0-0.2,0
		c-0.2-0.1-0.2-0.5-0.2-0.8c0.1-0.3,0.1-0.4,0.1-0.6c0.2-1.3,0.2-2.6,0.4-3.9c0.2-2,0.4-4,0.8-5.9c0.6-2.6,0.9-5.4,1.2-8
		c0.3-2.3-0.1-4-1.1-5.5c-0.5-0.7-1-0.9-1.7-0.8c-0.9,0.3-1.2,1.6-1.3,2.7c-0.5,3.5-1.2,7-1.8,10.6c-0.3,1-0.7,2-1.1,2.8
		c-0.9,1.8-2,3.2-3.2,4.4c-0.1,0.1-0.1,0.1-0.2,0.1c-0.2,0-0.3-0.1-0.3-0.4c0.1-1.2,0.1-2.3-0.1-3.4c0-0.4,0-0.8,0.1-1.2
		c0.3-1.1,0.2-2.1,0.2-3.1c-0.1-2.6-1.1-10.5-3.8-10c-1.1,0.2-2.3,1.8-3,2.8c-1.5,2.1-2.7,4.3-4,6.7c-1.1,1.9-2.2,3.7-3.2,5.7
		c-0.3,0.6-0.7,1.1-1.1,1.7c-0.1,0.2-0.3,0.4-0.5,0.3c-0.3-0.1-0.2-0.5-0.2-0.8c0.9-5.6,2.7-12.2,6.6-15.6c0.3,0.1,0.4,0.5,0.6,0.8
		c0.3,0.5,0.5,0.6,1,0.6c0.4-0.2,0.5-0.9,0.6-1.4c0.1-0.3,0.1-0.7,0.1-1c-0.7-2.6-1.8-3.7-3.7-3.3c-5.7,1-9.5,14.7-9.7,21.6
		c0,0,0,0,0,0.1c-0.2,0.8-0.5,1.5-0.8,2.3c-0.9,2.8-2.7,6-4.9,6.8c-0.2,0-0.3,0.1-0.5,0.2c-0.9,0.2-1.5-0.4-1.8-1.8
		c-0.5-2.3-1-4.7-0.9-7.3v-2c-0.1-0.5,0-0.9,0.2-1.3c0.1-0.3,0.2-0.5,0.4-0.4c0.2,0,0.3,0.1,0.5,0.2c0.3,0.2,0.8,0.2,1.1,0.1
		c0.5-0.1,1.1-0.4,1.6-1s1.1-1.2,1.4-2c1.9-3.4,1.5-7.2-0.9-9.4c-0.2-0.2-0.5-0.3-0.8-0.4c-0.6-0.1-1.1-0.1-1.6,0
		c-3,0.5-4.8,5.2-5.7,8.8c-0.4,1.9-0.6,3.7-0.7,5.7c-0.4,0.7-0.7,1.4-1.1,2.1c-0.6,1.2-1.3,2.3-2,3.2c-0.3,0.5-0.6,1-0.9,1.1
		c-0.1,0-0.2,0-0.3,0c-0.4-0.3-0.1-1.2,0.1-1.8c0.4-2.8,0.8-5.7,0.9-8.5c0.1-2.1-0.1-4.1-0.9-5.9c-0.5-1-1.2-1.4-1.9-1.3
		c-0.5,0.1-1.1,0.5-1.5,1.2c-1.2,1.4-2,3.7-2.5,5.6c-1.5,4.1-2.5,8.4-3.6,12.7c-0.9,3.5-1.9,7.1-2.7,10.7c-0.2,0.7-0.3,1.4-0.6,2
		c0,0.1-0.1,0.2-0.2,0.2s-0.2-0.1-0.2-0.2c0-0.2,0-0.6,0.1-0.9c0.5-2.9,0.9-6,1.4-8.9c0.7-3.7,1.5-7.4,2-11.3
		c0.2-1.5,0.2-2.9,0.3-4.3c0.1-2-0.8-3.1-1.6-4.3c0-0.1-0.4-0.2-0.7-0.1c-0.6,0.1-1.2,0.7-1.4,1.6c-0.1,0.4-0.1,0.9-0.2,1.3
		c-0.3,2.4-0.6,4.9-1.1,7.3c-0.2,0.4-0.5,1-0.7,1.5c-1.9,5.1-3.8,10.3-6.4,15c-0.9,1.7-1.8,3.2-2.8,4.6c-1,1.2-2.1,2.2-3.1,2.7
		c-0.2,0.1-0.4,0.2-0.6,0.2c-0.5,0.1-0.9-0.2-1.3-0.8c-0.2-0.3-0.3-0.7-0.5-1.1c-0.8-2.1-1.4-4.2-1.4-6.7c-0.1-4.1,0.3-8.1,1.6-12
		c1.2-3.5,2.9-6.3,5.4-7.9c0.5-0.3,1-0.7,1.4-0.7c0.4-0.1,0.8,0,1.2,0.5c0.1,0.1,0.2,0.2,0.3,0.2s0.3-0.1,0.4-0.3
		c0.2-0.3,0.3-0.8,0.2-1.2c-0.8-2.5-2.3-3.2-4.3-2.9c-7.5,1.4-10.9,13.5-10.9,22.4c0,5.4,0.9,10,4.4,12.4c1.1,0.7,2.2,1,3.1,0.8
		c4.1-0.7,8-8.6,10.1-13.4c0.7-1.7,1.4-3.2,2-4.9c-1.2,6.1-2.1,12.1-2.3,18.2c0,2.4,0.2,6.1,2.2,6.8c0.6,0.1,1.2,0.2,1.7,0.1
		c2-0.4,2.4-3.4,2.8-5.7c0.3-1.6,0.6-3.2,1-4.8c1-4.7,2-9.3,3-13.9c0.9-4.4,3.1-14.1,5.4-17.8c0.3-0.5,0.6-1.2,1.1-1.2
		c0.1,0,0.2,0,0.2,0c0.5,0.2,0.4,1.1,0.5,1.7c0.1,1.1-0.1,2.3-0.2,3.4c-0.2,3.1-0.8,6.3-1.5,9.4c-0.1,0.7-0.3,1.2-0.9,1.5
		c-1.9,1.1-4.6,8.8-4.6,11.9c0,1.6,0.9,2.4,2,2.3c0.4-0.1,0.8-0.3,1.2-0.8c0.3-0.4,0.6-0.8,0.9-1.3c1-1.9,1.6-3.9,2.3-6
		c0.3-1.2,0.6-2.3,0.9-3.4c0.2-1.1,0.6-1.2,1.3-1.3c1.2-0.2,2-1.2,2.8-2.4c0.4-0.6,0.8-1.3,1.2-1.9c0.1,0.8,0.2,1.7,0.4,2.4
		c0.2,1.2,0.6,2.3,1.2,3.2c1.3,2.3,3.3,3.3,5.4,2.9c1.2-0.2,2.4-0.9,3.5-2.1c0.7-0.9,1.3-1.8,1.8-2.8c0.6-1.1,1.1-2.3,1.5-3.5
		c0.6,1.2,1.6,1.9,2.6,2c0.2,0,0.4,0,0.6,0c0.6-0.1,1.1-0.5,1.5-1.3c0.3-0.6,0.7-1.3,1-1.9c1.7-3.4,3.3-6.8,5-10.3
		c1.4-2.5,2.8-5.1,4.7-7c0.2-0.1,0.4-0.3,0.6-0.4s0.3,0,0.4,0.3c0,0.3,0.1,0.7,0,1.2c-0.3,5.8-1.1,11.4-1.9,17.2
		c-0.1,0.5-0.3,0.9-0.7,0.9c-0.3,0.1-0.7,0.1-1.1,0.2c-1.7,0.3-3.1,0.6-4.6,1.5c-1.2,0.7-1.8,1.6-2.3,2.3c-2.9,3.8-4.3,11-4.5,12.1
		c0.9,0.2,2.1,2.3,2.1,2.3s0.4-3.7,1-6c1.1-4.8,4.7-9.1,5.6-9.6c0.8-0.5,2.3-1,2.3-1s0.5-0.1,0.7-0.1c0.5,0,0.7-0.1,0.8,0
		c0.6,0.4-0.2,2.3-0.2,2.3l0,0c-0.1,0.5-0.3,0.9-0.3,0.9s-2.1,9.2-4.8,14c-0.3,0.6-0.6,1.1-1,1.6c0.2,0,1.7-0.2,2.7,0.8
		c0.4,0.4,0.6,0.8,0.7,1.1c3.9-4.4,5.3-8.2,5.7-10.9c0.6-3.3,1.6-6.6,2.1-9.9c0.2-1.6,0.7-2.6,1.8-3.5c1.2-1,2.2-2.2,2.9-3.5
		c-0.4,2.7-0.7,5.6-0.8,8.4c-0.1,1.1,0,2.1,0.1,3.1c0.2,0.9,0.5,1.5,1.1,1.9c0.7,0.6,1.5,0.8,2.3,0.6c0.3,0,0.5-0.1,0.8-0.2
		c1-0.3,1.6-1.4,2.2-2.6c0.1-0.4,0.3-0.8,0.5-1.2c0.5-1.5,0.9-2.8,1.4-4.3c1.4-4.7,2.7-9.3,4-13.9c0.1-0.2,0.2-0.3,0.2-0.3
		c0.2,0,0.2,0.1,0.2,0.4C130.9,73.7,130.9,75.3,131,76.8L131,76.8z M87,76.3c0.1-1.7,1.6-4.4,2.4-5.5c0.1-0.2,0.3-0.4,0.5-0.3
		c0.2,0,0.3,0.4,0.3,0.8v0.2c-0.1,2.1-1.1,4.6-2.4,5.7c-0.1,0-0.2,0.1-0.2,0.1C87.2,77.2,86.8,76.8,87,76.3L87,76.3z"/>
	<path class="st0" d="M145.1,96.8c-0.2,0-0.4,0.1-0.6,0.2c-0.8,0.6-1.4,2.5-1.1,3.5c0.3,1.4,1.5,2.3,2.5,2.1
		c1.3-0.2,1.7-1.3,1.3-2.8c-0.2-1.2-0.8-1.9-1.3-2.6C145.9,96.7,145.5,96.7,145.1,96.8L145.1,96.8z"/>
	<path class="st0" d="M156.5,113.1c-1.4,0.3-2.3,5.5-3.6,7.8c-0.1,0.2-0.3,0.5-0.3,0.5c-0.4,0.7-1.2,1.7-1.5,2.3
		c-0.1,0.1-0.4,0.3-0.5,0.3c-0.2,0-0.3-0.2-0.4-0.4c-0.1-0.8-0.2-1.5-0.2-2.3c0-2,0.1-3.8,0.2-5.7c0.1-2.2,0.2-4.3,0.3-6.6
		c0.1-1.2-0.2-2.3-0.9-2.9c-0.3-0.4-0.6-0.7-1-0.6c-0.3,0.1-0.6,0.3-0.9,0.7c-1.2,1.9-2.3,5.3-2.9,7.3c-1.3,3.6-2.3,7.4-3.5,11.2
		c-0.8,2.3-1.7,4.7-2.4,7.1c-0.4,0.9-0.8,2-1.3,2.9c-0.2,0.3-0.2,0.7-0.5,0.7c-0.1,0-0.2,0-0.2-0.1c-0.3-0.2-0.2-0.7-0.2-1.1
		c0.1-0.3,0.1-0.6,0.1-0.8c0.2-1.8,0.3-3.5,0.6-5.3c0.3-2.6,0.6-5.4,1.1-7.9c0.8-3.6,1.3-7.2,1.7-10.8c0.4-2.9-0.2-5.4-1.4-7.4
		c-0.6-1-1.3-1.2-2.3-1c-1.3,0.4-1.6,2.1-1.7,3.6c-0.5,3.8-1.2,7.6-1.9,11.4c-0.2,0.8-0.5,1.7-0.7,2.5c-0.6,2.4-1.3,5-2.3,7.4
		c-1.3,3.9-3.6,8-6.7,9.1c-0.2,0-0.5,0.2-0.7,0.2c-1.3,0.2-2-0.5-2.3-2.3c-0.7-3.2-1.3-6.4-1.2-9.8v-2.6c-0.1-0.6,0-1.2,0.2-1.8
		c0.2-0.4,0.3-0.6,0.6-0.5c0.3,0.1,0.5,0.1,0.7,0.2c0.5,0.2,1,0.3,1.5,0.2c0.7-0.1,1.5-0.6,2.1-1.4c0.7-0.8,1.4-1.7,1.9-2.5
		c2.5-4.5,2-9.7-1.3-12.5c-0.3-0.3-0.7-0.4-1.1-0.6c-0.8-0.2-1.5-0.2-2.2,0c-4,0.7-6.4,6.9-7.5,11.7c-0.6,2.6-0.8,5.3-0.9,8
		c-0.1,1.4-0.1,2.8,0,4.1c-0.1,0.2-0.1,0.3-0.2,0.5c-1.2,2.3-2.6,4.3-4.3,6c-0.1,0.1-0.2,0.1-0.2,0.2c-0.2,0-0.4-0.1-0.4-0.6
		c0.2-1.6,0.1-3.1-0.1-4.6c0-0.6,0-1.1,0.2-1.6c0.4-1.5,0.3-2.7,0.2-4.2c-0.2-3.5-1.5-14-5.1-13.4c-1.4,0.3-3.1,2.3-4,3.8
		c-2,2.7-3.7,5.8-5.4,8.9c-1.5,2.5-2.9,5-4.4,7.5c-0.5,0.9-0.9,1.5-1.4,2.2c-0.2,0.3-0.4,0.5-0.6,0.4c-0.4-0.2-0.3-0.7-0.3-1
		c1.2-7.5,3.7-16.4,8.8-20.9c0.5,0.1,0.6,0.7,0.8,1.1c0.4,0.7,0.7,0.9,1.3,0.8c0.6-0.3,0.7-1.2,0.8-1.9c0.1-0.5,0.2-0.9,0.1-1.3
		c-0.9-3.5-2.3-5-5-4.5c-6.6,1.2-11.3,15-12.6,24.8c-1.7,4-4.3,9.9-6.9,10.9c-0.8,0.3-1.4-0.4-1.3-1.5s0.2-2.1,0.4-3.1
		c0.8-5.4,0.9-10.9,0.6-16.1c-0.2-2.6-0.6-5.5-2.1-7c-0.6-0.7-1.1-0.9-1.6-0.8c-0.6,0.1-1.3,0.8-1.7,2c-1.2,2.3-1.6,7.2-1.6,9.9
		c-0.1,0.6-0.1,1.1-0.2,1.7c-0.1,0.2-0.2,0.4-0.3,0.4c0,0-0.1,0-0.2-0.1c-0.2-0.2-0.5-0.5-0.6-0.8c-0.6-0.8-0.9-1-1.5-0.9
		c-0.3,0.1-0.6,0.2-1,0.5c-0.6,0.6-1.3,1.4-1.7,2.3c-1.3,3.4-2,7.3-2.6,11c-0.1,0.8-0.2,1.6-0.6,2.2c-1.1,2-2.3,2.9-3.8,3.2
		c-0.9,0.1-1.9,0-2.8,0c-0.7-0.1-0.8-0.2-0.8-1.4c-0.1-2.1,0.4-4,0.6-6.1c0.4-3.3,0.9-6.7,1.5-10c0.3-1.9,0.1-3.5-0.8-4.9
		c-0.6-0.9-1-1.1-1.8-1c-1.8,0.5-2.7,4.5-3.2,6.6c-0.8,3.1-1.5,6.4-1.9,9.5c-1,3.6-2,7.2-3.1,10.8c-0.6,1.5-3.4,8.9-4.4,9.1
		c-0.2,0-0.4-0.3-0.5-0.7c-0.1-0.3-0.2-0.6-0.2-0.9c-0.2-2.3-0.4-4.6-0.4-6.8c0-7.1,0.6-14.3,1.3-21.5c0.2-2.8,0.6-5.8,0.8-8.7
		c0.1-2.5-0.5-4.6-1.5-6.4c-0.7-1.2-1.6-1.8-2.4-1.6c-0.7,0.1-1.5,0.8-2.2,1.8c-0.7,1.1-1.3,2.3-2,3.4c-1.7,3.6-3,7.5-4.3,11.4
		c-1.7,5-3.2,10.2-5.1,15c-0.9,2.1-1.7,4.2-2.7,6c-0.4,0.7-0.9,1.4-1.3,2c-0.2,0.3-0.3,0.4-0.5,0.4c-0.3,0.1-0.5-0.2-0.6-0.8
		c-0.5-3.1,0-6.4,0.9-9.5c0.8-1.1,0.7-2.1-0.1-2.8c-0.1-0.2-0.2-0.4-0.2-0.6c-0.2-0.7-0.6-0.9-1.2-0.9c-1.7,0.3-2.2,0.6-2.7,2.9
		c-0.1,0.2-0.1,0.3-0.2,0.6c-0.6,3-0.6,5.9-0.4,8.9c0.4,3.4,2,6.3,4.6,5.8c2-0.4,3.5-3.1,4.6-5.6c1.1-2.3,2.1-4.8,2.9-7.3
		c1.7-5,3.2-10.1,4.9-15c0.4-1.2,2.7-8.1,3.4-8.2c0.2,0.1,0.2,0.2,0.2,0.3c0,0.6,0,1.1-0.1,1.6c-1.8,10.5-2.4,21.2-2.4,31.6
		c0.2,5.8,1.3,11.4,6.4,11.3c2.1-0.4,3.2-2.2,4.1-4.8c1.4-3.1,2.4-6.4,3.5-9.7c0,1.1,0,2.3,0,3.3c0,4.1,0.1,15.2,4.4,14.4
		c1.1-0.2,2-1.1,2.2-2.7c0.1-0.7,0-1.4-0.1-2.2c-0.4-3.9-0.2-7.9-0.2-11.9c0.1-0.5,0.1-0.9,0.2-1.2c0.1-0.7,0.4-1.2,0.9-1.3
		c0.6-0.1,1.3-0.2,2-0.1c0.6,0,1,0,1.6-0.1c0.7-0.1,1.4-0.4,2-0.8c0.2-0.2,0.6-0.3,0.9-0.5c0.2,0.7,0.2,1.4,0.2,2
		c0.1,1.4,0.1,2.7,0.2,4.2c0.3,5,2.1,9,5.8,9.7c0.4,0,0.9,0.1,1.3,0c1.5-0.3,2.8-1.5,3.8-4.1c0.7-2.1,1.3-4.2,1.9-6.5
		c0.3-1.6,0.6-3.1,1-4.7c0.2-0.8,0.2-1,0.6-1.1c0.2,0,0.4-0.1,0.6,0c0.6,0.1,1.1,0.1,1.7,0c1.3-0.2,2.5-1.2,3.6-2.6
		c0.2-0.4,0.5-0.6,0.7-1c0.7-1,1.4-2.1,2-3.2c0.6,2.4,2.3,3.9,4.1,4c0.3,0,0.6,0,0.9,0c0.8-0.1,1.5-0.7,2-1.8
		c0.5-0.9,0.9-1.7,1.3-2.4c2.3-4.6,4.5-9.2,6.8-13.8c1.8-3.4,3.8-6.8,6.3-9.5c0.3-0.2,0.6-0.4,0.9-0.6c0.2-0.2,0.5,0,0.6,0.5
		c0,0.4,0.1,1,0,1.5c-0.4,7.8-1.4,15.4-2.4,23.1c-0.2,0.7-0.4,1.2-0.9,1.3s-0.9,0.2-1.4,0.3c-3.4,0.6-6.5,1.2-9.3,5
		c-3.1,4.3-5.2,9.5-5.8,15.4c-0.4,4,0.6,7.1,2.7,9.2c1.7,1.6,3.8,2,6,1.7c6.5-1.2,9.4-8,11.5-15.9c1.3-4.4,2.1-8.9,2.7-13.3
		c0.3-2.1,0.9-3.5,2.3-4.7c1.8-1.5,3.1-3.2,4.3-5.3c0.1,0.4,0.1,0.7,0.2,1.1c0.3,1.6,0.9,3,1.7,4.3c1.7,3.1,4.5,4.5,7.2,4
		c1.7-0.3,3.2-1.2,4.7-2.7c0.9-1.2,1.7-2.3,2.3-3.7c0.4-0.8,0.8-1.6,1.1-2.3c-0.3,2.6-0.5,5.4-0.6,8c-0.1,1.4,0,2.8,0.2,4.2
		c0.2,1.2,0.7,2.1,1.4,2.5c0.9,0.8,2,1.1,3.1,0.9c0.4-0.1,0.7-0.1,1.1-0.3c1.3-0.5,2.2-1.9,2.8-3.5c0.2-0.6,0.4-1.1,0.6-1.7
		c0.6-2,1.3-3.7,1.9-5.7c1.9-6.3,3.6-12.4,5.4-18.7c0.1-0.2,0.2-0.4,0.3-0.4c0.2,0,0.3,0.2,0.2,0.5c-0.2,2.1-0.2,4.1-0.1,6.2
		c0,2.9,0.6,7,3.2,6.6c1.9-0.2,3.4-2.7,3.9-3.4c1.7-2.8,3-5.7,4.3-8.7c0-0.1,0-0.1,0.1-0.2c0-0.2,0-0.3,0-0.5
		C157.9,113.5,157,113,156.5,113.1z M120.2,115.1c0.2-2.3,2.2-5.9,3.3-7.3c0.2-0.3,0.5-0.5,0.6-0.4c0.3,0.1,0.4,0.6,0.5,1v0.3
		c-0.2,2.8-1.4,6.2-3.3,7.5c-0.1,0-0.2,0.2-0.3,0.2C120.5,116.4,120,115.9,120.2,115.1z M69.9,140.4c-0.7,2.8-2.3,8.4-3.7,10.8
		c-0.1,0.2-0.2,0.4-0.3,0.4c-0.2,0-0.3-0.1-0.4-0.3c-0.2-0.5-0.3-1-0.4-1.6c-0.3-2-0.6-4-0.6-5.8c0-2.6,0.2-5.1,0.6-7.5
		c0.4-2.6,0.9-5.4,1.3-8.2c0.1-0.3,0.2-0.7,0.5-0.7s0.3,0.4,0.3,0.7c0.2,0.9,0.2,1.8,0.4,2.6c0.3,2.5,1,4.9,2.1,6.9
		C70.1,138.6,70.1,139.5,69.9,140.4L69.9,140.4z M71.7,131.7c-0.1,0.3-0.2,0.7-0.2,1c0,0.1-0.2,0.3-0.2,0.3c-0.2,0-0.3,0.1-0.3,0
		c-0.2-0.5-0.4-1-0.5-1.6c-0.6-2.9-0.9-5.9-0.9-9c-0.2-2.3,0.2-4.5,0.6-6.8c0.2-0.6,0.2-1,0.4-1.5c0.1-0.3,0.3-0.7,0.6-0.6
		c0.1,0,0.3,0.2,0.3,0.4c0.2,0.8,0.5,1.7,0.6,2.5C72.4,121.4,72.4,126.5,71.7,131.7z M100.1,142.1c-1.2,5.9-4.4,21.2-9.8,22.2
		c-1.7,0.3-3.2-0.9-3.8-3.5c-0.3-1.4-0.3-2.8-0.2-4.4c0.9-7.9,4.9-15.5,10.8-17c0.4-0.1,0.8-0.1,1.3-0.2c0.4-0.1,0.7-0.1,0.9-0.2
		C100.8,138.7,100.7,138.9,100.1,142.1z"/>
</g>
<g>
	<path class="st2" d="M20.3,20.8c0.2,0,0.5-0.2,0.6-0.4c0.2-0.6,0.5-1.3,0.6-2c1-2.7,2.3-5.2,4.3-6.8c0.4-0.4,0.7-0.6,0.9-0.6
		c0.4-0.1,0.6,0.2,1,0.9c2.5,4.9,3.8,9.5,4.5,15.8c0.6,3.7,0.8,7.5,0.6,11.5c-0.2,1.7-0.2,1.7-1.4,2.1c-0.9,0.4-1.7,0.6-2.4,1
		c-0.7,0.3-1,1.2-0.8,2c0.3,1,0.9,1.7,1.7,1.7c0.6-0.1,1.1-0.2,1.7-0.3c0.4-0.1,0.6,0.2,0.6,0.8c0,5.9-4.9,20.1-7.1,25.6
		c-0.4,1.1-1,2.3-1.7,3.1c-0.2,0.3-0.5,0.4-0.7,0.5c-0.3,0.1-0.6-0.1-0.8-0.6c-0.4-0.9-0.5-2.1-0.5-3c0.2-2.9,0.5-5.8,2.4-7.7
		c0.3-0.3,0.2-0.6,0.1-0.8c-0.3-0.5-0.6-0.7-1-0.6c-0.6,0.1-1.4,1-1.7,1.7c-1.4,2.7-2.3,5.7-2.2,8.9c0,3.6,1.7,5.7,4.2,5.5
		c3.9-0.7,6.7-4,8.8-8.8c3.5-7.9,5.7-16.2,6.8-25c0.2-1.2,0.5-1.6,1.3-1.9c0.9-0.3,1.8-0.4,2.7-0.6c0.9-0.2,1,0,1,1.2
		c-0.2,3.2-0.2,6.4-0.4,9.5c-0.1,2.2-0.2,4.3-0.2,6.5c0.1,3.3,0.2,6.8,0.3,10.1c0.1,0.9,0.2,1.6,0.3,2.4c0.1,0.5,0.2,0.9,0.6,1.1
		c0.2,0.2,1,0.8,1.7,0.9c1.1-0.7,1.6-1.7,2.6-2.1c0.1-0.6,0.2-0.9,0.2-1.2c0.1-2.8,0.3-5.6,0.6-8.2c0.1-2.1,0.3-4.2,0.3-6.3
		c0-4.3,0.2-8.7,0.5-13.2c0-0.4,0-0.8,0.1-1.2c0.1-0.8,0.4-1.2,1-1.4c0.2-0.2,0.5-0.2,0.7-0.2c0.3-0.1,0.6-0.1,0.7-0.1
		c1.3-0.2,1.3,0.2,1.5,2.5c0.2,6.8,3.1,14.7,7,18.2c1.2,1.2,2.5,1.6,4.1,1.7c1.9-0.3,3.2-1.2,3.8-4c0.1-0.6,0.2-1,0.3-1.6
		c0.1-0.3,0.1-0.7,0.2-1c0,0.3,0,0.6,0.1,1c0.2,1.2,0.7,2.1,1.4,2.5c0.9,0.8,2,1.1,3.1,0.9c0.4-0.1,0.7-0.1,1.1-0.3
		c1.3-0.5,2.2-1.9,2.8-3.5c0.2-0.6,0.4-1.1,0.6-1.7c0.6-2,1.3-3.7,1.9-5.7c1.9-6.3,3.6-12.4,5.4-18.7c0.1-0.2,0.2-0.4,0.3-0.4
		c0.2,0,0.3,0.2,0.2,0.5c-0.2,2.1-0.2,4.1-0.1,6.2c0,2.9,0.6,7,3.2,6.6c0.7-0.1,1.3-0.6,1.8-1.3c1.3-2.3,2.4-4.5,3.5-6.8
		c-0.4,2.2-0.7,4.3-0.9,6.5c-0.3,3.4-0.6,6.7-0.5,10c0.2,4.6,1.1,9.1,5.1,8.3c2.3-0.4,3.1-3.6,3.8-6.3c0.9-3.7,1.8-7.4,2.6-11
		c1.5-6.1,2.9-12.1,4.9-17.9c0.2-0.7,0.6-1.4,0.9-2.1c0-0.1,0.2-0.1,0.3-0.2l0.1,0.2c0,0.7,0.1,1.4,0,2.1c-0.2,2-0.3,3.9-0.5,6
		c-0.2,2-0.2,3.9-0.2,6c0,1.4,0.5,2.2,1.3,2.3c0.2,0.1,0.4,0,0.6,0c0.6-0.1,1.2-0.6,1.6-1.6c1.1-2.3,1.8-4.8,2.4-7.3
		c1.3-4.2,5.3-15.9,7.8-18.7c0.1-0.1,0.2-0.2,0.3-0.2c0.1,0.1,0.2,0.2,0.2,0.3c0,0.6-0.1,1.1-0.2,1.6c-0.3,1.4-0.7,2.8-1,4.1
		c-2.1,7.4-3.7,15.2-4.7,22.9c-0.4,2.8-0.7,5.8-0.2,8.6c0.3,2.3,1.4,4.5,3.2,4.1c1.1-0.2,2.4-1.8,2.8-3.2c1.2-2.4,2.3-5,3.3-7.5
		c1.4-3.2,2.6-6.6,3.8-9.9c-0.2,2-0.4,3.9-0.5,5.8c-0.1,1.9,0.1,3.6,0.2,5.4c0.5,3.8,2,6.8,5,6.3c1.8-0.3,2.6-2.3,3.3-4.3
		c0.9-2.8,1.7-5.6,2.4-8.4c1.3-4.4,2.4-8.7,4-12.8c1-2.4,2-4.9,3.3-7c0.2-0.3,0.3-0.6,0.6-0.6s0.3,0.5,0.2,0.8
		c-0.1,1.2-0.2,2.3-0.2,3.5c-0.2,1.3-0.6,2.3-1.3,3.3c-2.6,3.6-5.7,9.8-6.3,14.9c-0.1,0.8-0.2,1.6,0,2.3c0.3,1.9,1.4,2.4,2.3,2.3
		c3.4-0.6,6.7-13.8,7.2-18.2c0.2-1.8,0.8-3,2-3.9c0.6-0.7,1.3-1.2,1.9-1.9c1.5-1.3,3-2.5,4.5-3.9c0.5-0.4,0.5-0.6,0.2-1.2
		c-0.3-0.7-0.6-1-1-0.9c-0.1,0-0.2,0.2-0.4,0.2c-0.5,0.2-0.9,0.5-1.3,0.8c-0.9,0.7-1.8,1.5-2.7,2.3c-0.5,0.4-0.9,0.9-1.5,1.4
		c-0.1,0.1-0.2,0.2-0.3,0.2c-0.2,0-0.4-0.1-0.5-0.6s-0.1-1.2-0.2-1.7c-0.3-1.8-1.2-3.8-2.7-3.5c-0.6,0.1-1.1,0.4-1.7,1.2
		c-1.7,1.8-3.5,6.1-4.6,8.6c-1.7,4-2.8,8.1-4.2,12.2c-0.4,1.4-1.7,5.5-2.3,6.6c0,0.1-0.2,0.1-0.3,0.2c-0.1,0-0.2-0.2-0.2-0.3v-1
		c0.2-4.4,1.1-8.9,1.6-13.5c0-0.2,0.1-0.5,0.2-0.7c1.6-6.1,2.9-11.4,4.9-17.4c0.9-2.6,0.8-2.6-0.2-4.9c-0.4-1-1-1.1-1.8-1
		s-1.5,0.7-2,1.7c-0.3,0.5-0.6,1-0.8,1.5c-2.3,4.6-4,10.1-5.4,15.7c-1.2,2.8-2.3,5.6-3.2,8.4c-2.2,6.2-4.6,12-7.2,17.8
		c-0.3,0.6-0.6,1.1-0.9,1.7c-0.1,0.1-0.1,0.1-0.2,0.1c-0.2,0-0.4-0.1-0.4-0.3c-0.1-0.6-0.2-1.2-0.2-1.7c-0.1-2.4,0.3-4.9,0.6-7.3
		c0.6-4.3,1.6-8.8,2.5-13c0.9-4.1,1.9-8.2,2.8-12.2c0.3-1.6,0.5-3,0.6-4.5c0-2-0.9-5-2.5-4.7c-0.5,0.1-0.9,0.4-1.4,1
		c-0.5,0.5-0.9,1.3-1.3,1.9c-3.7,6.5-6.2,13.6-8.5,20.8c-0.2,0.9-0.6,1.7-0.9,2.6c-0.1,0.1-0.2,0.3-0.3,0.3c-0.2,0-0.3-0.3-0.3-0.5
		c0.2-2.1,0.3-4.1,0.4-6.3c0.2-2.3,0.3-4.6,0.2-6.9c0-1-0.2-1.8-0.6-2.3c-0.3-0.5-0.7-0.6-1.1-0.6c-0.3,0.1-0.6,0.2-0.8,0.5
		c-0.4,0.5-0.6,1-0.9,1.5c-3.1,7.2-5.4,14.4-7.5,22.1c-0.7,2.3-1.4,4.7-2.1,7c-0.2,0.5-0.2,1.1-0.7,1.4c-0.4-0.6-0.4-1.2-0.2-1.9
		c0.5-2.3,0.6-4.6,0.9-6.9c0.7-5,1.7-9.8,2.7-14.7c0.5-2.6,1.1-5.4,1.5-8.1c0.3-2.5-0.4-4.1-1.4-5.7c-0.2-0.3-0.5-0.4-0.8-0.4
		c-0.2-0.1-0.5,0-0.7,0c-1.3,0.2-2,2.4-2.3,3.8c-1,3.8-2,7.5-2.8,11.4c-0.4,0.7-0.8,1.4-1.2,2.1c-1.5,3-2.9,6.1-4.5,9.2
		c-0.3,0.6-0.6,1.2-1,1.8c-0.1,0.1-0.2,0.3-0.3,0.3c-0.2,0-0.3-0.2-0.4-0.4c-0.1-0.8-0.2-1.5-0.2-2.3c0-2,0.1-3.8,0.2-5.7
		c0.1-2.2,0.2-4.3,0.3-6.6c0.1-1.2-0.2-2.3-0.9-2.9c-0.3-0.4-0.6-0.7-1-0.6c-0.3,0.1-0.6,0.3-0.9,0.7c-1.2,1.9-2.3,5.2-2.9,7.3
		c-1.3,3.6-2.3,7.4-3.5,11.2c-0.8,2.3-1.7,4.7-2.4,7.1c-0.4,0.9-0.8,2-1.3,2.9C76,51,76,51.4,75.7,51.4c-0.1,0-0.2,0-0.2-0.1
		c-0.3-0.2-0.2-0.7-0.2-1.1c0.1-0.3,0.1-0.6,0.1-0.8c0.2-1.8,0.3-3.5,0.6-5.3c0.3-2.6,0.6-5.4,1.1-7.9c0.8-3.6,1.3-7.2,1.7-10.8
		c0.4-2.9-0.2-5.4-1.4-7.4c-0.6-1-1.3-1.2-2.3-1c-1.3,0.4-1.6,2.1-1.7,3.6c-0.8,5.5-1.9,11.1-2.7,16.6c-0.9,5.3-1.6,10.6-1.8,16
		c0,0.6,0,1.3,0,1.9c-0.1-0.6-0.3-1.1-0.7-1.7c-0.3-0.6-0.7-0.6-1.1-0.6c-0.1,0-0.2,0-0.3,0.1c-0.6,0.2-0.8,0.7-1,1.4
		c-0.2,1-0.5,2.1-0.9,2.9c-0.3,0.9-0.6,1.3-1,1.4c-0.4,0.1-0.8-0.2-1.2-0.9c-1.7-2.4-2.7-5.2-3.4-8.4c-0.6-2.8-0.6-5.7-0.6-8.5
		c0.1-0.9,0.3-1.4,0.9-1.6c0.5-0.1,0.9-0.2,1.4-0.3c0.9-0.3,1.8-0.4,2.7-0.7c0.5-0.1,0.8-0.5,0.9-1.2c0.4-2,0-2.8-1.5-2.5
		c-0.2,0-0.5,0.1-0.7,0.1c-0.8,0-1.5,0.2-2.2,0.3c-0.6,0-0.9-0.5-0.7-1.3c3-10.7,7.5-19.3,13.6-26.5c0.8-1,1.2-2.1,0.9-3.5
		c-0.3-1.5-1.2-2-2.3-1.8c-0.3,0.1-0.6,0.2-0.9,0.4C68.1,4.3,65,8.7,63,12c-3.8,6.2-6.4,13-8,20.5c-0.2,1-0.2,2.1-0.7,2.8
		c-0.3,0.3-0.6,0.4-0.9,0.5c-0.4,0.1-0.8,0-1.2,0.1c-0.3,0.1-0.6,0-0.8,0c-0.4,0-0.6-0.3-0.6-0.9c0-1,0-1.9,0.2-2.7
		c0.6-5.3,1.2-10.6,1.7-15.8c0.2-1.6,0.3-3.1,0.6-4.7c0-2.6-0.4-5-1.5-7.1c-0.5-1-1.2-1-2-0.9c-0.7,0.2-1,0.8-1.3,1.8
		c-0.2,0.8-0.4,1.6-0.6,2.4c-1.1,6.4-2.1,12.6-2.9,18.9c-0.4,3.2-0.7,6.4-1.1,9.4c-0.1,0.6-0.2,1.1-0.6,1.3c-1.3,0.3-2.4,0.7-3.7,1
		c-0.3,0.2-0.5-0.1-0.6-0.5s-0.2-0.9-0.2-1.2c0.2-3-0.3-5.9-0.6-8.8c-0.4-3.2-0.8-6.6-1.8-9.5c-0.3-0.8-0.7-1.6-1-2.4
		c-1.3-4-4.9-10.2-8.6-9.5c-3.1,0.6-5.4,4-6.8,7.8c-0.5,1.5-0.9,3-0.9,4.6c0,0.4,0.1,0.9,0.2,1.2C19.8,20.7,20.1,20.9,20.3,20.8
		L20.3,20.8z M148.4,31.2c-0.6,3-1.6,5.9-2.9,8.8c-0.1,0.1-0.2,0.3-0.3,0.2c-0.1,0-0.2-0.2-0.2-0.3c0.1-0.5,0.1-1,0.2-1.5
		c0.6-2.7,1.6-5.2,2.8-7.6c0.1-0.1,0.2-0.2,0.3-0.2s0.2,0.1,0.2,0.2C148.4,31.1,148.4,31.1,148.4,31.2L148.4,31.2z"/>
	<path class="st2" d="M131,76.8c0,2.2,0.4,5.2,2.4,4.9c0.5-0.1,1-0.4,1.4-1c1.6-2.9,2.9-5.7,4.4-8.7c0.3-0.6,0.6-1.3,0.9-2l0.2-0.8
		c0.1-0.3-0.2-1.1-0.6-1.2c-0.1-0.1-0.2,0-0.2,0c-0.2,0-0.3,0.2-0.5,0.4c-0.3,0.6-0.7,1.2-1,1.8c-1.1,2.3-2.2,4.6-3.3,6.8
		c-0.2,0.5-0.5,0.9-0.8,1.4c-0.1,0.1-0.2,0.2-0.2,0.2c-0.1,0-0.2-0.1-0.3-0.3c-0.1-0.6-0.1-1.1-0.1-1.7c0-1.5,0.1-2.8,0.1-4.3
		c0.1-1.7,0.2-3.2,0.2-4.9c0.1-0.9-0.2-1.7-0.6-2.3c-0.2-0.3-0.5-0.5-0.8-0.4c-0.2,0-0.4,0.2-0.6,0.5c-0.9,1.4-1.7,3.9-2.2,5.4
		c-0.9,2.7-1.8,5.5-2.6,8.3c-0.6,1.8-1.2,3.5-1.9,5.3c-0.3,0.7-0.6,1.5-0.9,2.2c-0.1,0.2-0.2,0.5-0.3,0.6c-0.1,0-0.1,0-0.2,0
		c-0.2-0.1-0.2-0.5-0.2-0.8c0.1-0.3,0.1-0.4,0.1-0.6c0.2-1.3,0.2-2.6,0.4-3.9c0.2-2,0.4-4,0.8-5.9c0.6-2.6,0.9-5.4,1.2-8
		c0.3-2.3-0.1-4-1.1-5.5c-0.5-0.7-1-0.9-1.7-0.8c-0.9,0.3-1.2,1.6-1.3,2.7c-0.5,3.5-1.2,7-1.8,10.6c-0.3,1-0.7,2-1.1,2.8
		c-0.9,1.8-2,3.2-3.2,4.4c-0.1,0.1-0.1,0.1-0.2,0.1c-0.2,0-0.3-0.1-0.3-0.4c0.1-1.2,0.1-2.3-0.1-3.4c0-0.4,0-0.8,0.1-1.2
		c0.3-1.1,0.2-2.1,0.2-3.1c-0.1-2.6-1.1-10.5-3.8-10c-1.1,0.2-2.3,1.8-3,2.8c-1.5,2.1-2.7,4.3-4,6.7c-1.1,1.9-2.2,3.7-3.2,5.7
		c-0.3,0.6-0.7,1.1-1.1,1.7c-0.1,0.2-0.3,0.4-0.5,0.3c-0.3-0.1-0.2-0.5-0.2-0.8c0.9-5.6,2.7-12.2,6.6-15.6c0.3,0.1,0.4,0.5,0.6,0.8
		c0.3,0.5,0.5,0.6,1,0.6c0.4-0.2,0.5-0.9,0.6-1.4c0.1-0.3,0.1-0.7,0.1-1c-0.7-2.6-1.8-3.7-3.7-3.3c-5.7,1-9.5,14.7-9.7,21.6
		c0,0,0,0,0,0.1c-0.2,0.8-0.5,1.5-0.8,2.3c-0.9,2.8-2.7,6-4.9,6.8c-0.2,0-0.3,0.1-0.5,0.2c-0.9,0.2-1.5-0.4-1.8-1.8
		c-0.5-2.3-1-4.7-0.9-7.3v-2c-0.1-0.5,0-0.9,0.2-1.3c0.1-0.3,0.2-0.5,0.4-0.4c0.2,0,0.3,0.1,0.5,0.2c0.3,0.2,0.8,0.2,1.1,0.1
		c0.5-0.1,1.1-0.4,1.6-1s1.1-1.2,1.4-2c1.9-3.4,1.5-7.2-0.9-9.4c-0.2-0.2-0.5-0.3-0.8-0.4c-0.6-0.1-1.1-0.1-1.6,0
		c-3,0.5-4.8,5.2-5.7,8.8c-0.4,1.9-0.6,3.7-0.7,5.7c-0.4,0.7-0.7,1.4-1.1,2.1c-0.6,1.2-1.3,2.3-2,3.2c-0.3,0.5-0.6,1-0.9,1.1
		c-0.1,0-0.2,0-0.3,0c-0.4-0.3-0.1-1.2,0.1-1.8c0.4-2.8,0.8-5.7,0.9-8.5c0.1-2.1-0.1-4.1-0.9-5.9c-0.5-1-1.2-1.4-1.9-1.3
		c-0.5,0.1-1.1,0.5-1.5,1.2c-1.2,1.4-2,3.7-2.5,5.6c-1.5,4.1-2.5,8.4-3.6,12.7c-0.9,3.5-1.9,7.1-2.7,10.7c-0.2,0.7-0.3,1.4-0.6,2
		c0,0.1-0.1,0.2-0.2,0.2s-0.2-0.1-0.2-0.2c0-0.2,0-0.6,0.1-0.9c0.5-2.9,0.9-6,1.4-8.9c0.7-3.7,1.5-7.4,2-11.3
		c0.2-1.5,0.2-2.9,0.3-4.3c0.1-2-0.8-3.1-1.6-4.3c0-0.1-0.4-0.2-0.7-0.1c-0.6,0.1-1.2,0.7-1.4,1.6c-0.1,0.4-0.1,0.9-0.2,1.3
		c-0.3,2.4-0.6,4.9-1.1,7.3c-0.2,0.4-0.5,1-0.7,1.5c-1.9,5.1-3.8,10.3-6.4,15c-0.9,1.7-1.8,3.2-2.8,4.6c-1,1.2-2.1,2.2-3.1,2.7
		c-0.2,0.1-0.4,0.2-0.6,0.2c-0.5,0.1-0.9-0.2-1.3-0.8c-0.2-0.3-0.3-0.7-0.5-1.1c-0.8-2.1-1.4-4.2-1.4-6.7c-0.1-4.1,0.3-8.1,1.6-12
		c1.2-3.5,2.9-6.3,5.4-7.9c0.5-0.3,1-0.7,1.4-0.7c0.4-0.1,0.8,0,1.2,0.5c0.1,0.1,0.2,0.2,0.3,0.2s0.3-0.1,0.4-0.3
		c0.2-0.3,0.3-0.8,0.2-1.2c-0.8-2.5-2.3-3.2-4.3-2.9c-7.5,1.4-10.9,13.5-10.9,22.4c0,5.4,0.9,10,4.4,12.4c1.1,0.7,2.2,1,3.1,0.8
		c4.1-0.7,8-8.6,10.1-13.4c0.7-1.7,1.4-3.2,2-4.9c-1.2,6.1-2.1,12.1-2.3,18.2c0,2.4,0.2,6.1,2.2,6.8c0.6,0.1,1.2,0.2,1.7,0.1
		c2-0.4,2.4-3.4,2.8-5.7c0.3-1.6,0.6-3.2,1-4.8c1-4.7,2-9.3,3-13.9c0.9-4.4,3.1-14.1,5.4-17.8c0.3-0.5,0.6-1.2,1.1-1.2
		c0.1,0,0.2,0,0.2,0c0.5,0.2,0.4,1.1,0.5,1.7c0.1,1.1-0.1,2.3-0.2,3.4c-0.2,3.1-0.8,6.3-1.5,9.4c-0.1,0.7-0.3,1.2-0.9,1.5
		c-1.9,1.1-4.6,8.8-4.6,11.9c0,1.6,0.9,2.4,2,2.3c0.4-0.1,0.8-0.3,1.2-0.8c0.3-0.4,0.6-0.8,0.9-1.3c1-1.9,1.6-3.9,2.3-6
		c0.3-1.2,0.6-2.3,0.9-3.4c0.2-1.1,0.6-1.2,1.3-1.3c1.2-0.2,2-1.2,2.8-2.4c0.4-0.6,0.8-1.3,1.2-1.9c0.1,0.8,0.2,1.7,0.4,2.4
		c0.2,1.2,0.6,2.3,1.2,3.2c1.3,2.3,3.3,3.3,5.4,2.9c1.2-0.2,2.4-0.9,3.5-2.1c0.7-0.9,1.3-1.8,1.8-2.8c0.6-1.1,1.1-2.3,1.5-3.5
		c0.6,1.2,1.6,1.9,2.6,2c0.2,0,0.4,0,0.6,0c0.6-0.1,1.1-0.5,1.5-1.3c0.3-0.6,0.7-1.3,1-1.9c1.7-3.4,3.3-6.8,5-10.3
		c1.4-2.5,2.8-5.1,4.7-7c0.2-0.1,0.4-0.3,0.6-0.4s0.3,0,0.4,0.3c0,0.3,0.1,0.7,0,1.2c-0.3,5.8-1.1,11.4-1.9,17.2
		c-0.1,0.5-0.3,0.9-0.7,0.9c-0.3,0.1-0.7,0.1-1.1,0.2c-1.7,0.3-3.1,0.6-4.6,1.5c-1.2,0.7-1.8,1.6-2.3,2.3c-2.9,3.8-4.3,11-4.5,12.1
		c0.9,0.2,2.1,2.3,2.1,2.3s0.4-3.7,1-6c1.1-4.8,4.7-9.1,5.6-9.6c0.8-0.5,2.3-1,2.3-1s0.5-0.1,0.7-0.1c0.5,0,0.7-0.1,0.8,0
		c0.6,0.4-0.2,2.3-0.2,2.3l0,0c-0.1,0.5-0.3,0.9-0.3,0.9s-2.1,9.2-4.8,14c-0.3,0.6-0.6,1.1-1,1.6c0.2,0,1.7-0.2,2.7,0.8
		c0.4,0.4,0.6,0.8,0.7,1.1c3.9-4.4,5.3-8.2,5.7-10.9c0.6-3.3,1.6-6.6,2.1-9.9c0.2-1.6,0.7-2.6,1.8-3.5c1.2-1,2.2-2.2,2.9-3.5
		c-0.4,2.7-0.7,5.6-0.8,8.4c-0.1,1.1,0,2.1,0.1,3.1c0.2,0.9,0.5,1.5,1.1,1.9c0.7,0.6,1.5,0.8,2.3,0.6c0.3,0,0.5-0.1,0.8-0.2
		c1-0.3,1.6-1.4,2.2-2.6c0.1-0.4,0.3-0.8,0.5-1.2c0.5-1.5,0.9-2.8,1.4-4.3c1.4-4.7,2.7-9.3,4-13.9c0.1-0.2,0.2-0.3,0.2-0.3
		c0.2,0,0.2,0.1,0.2,0.4C130.9,73.7,130.9,75.3,131,76.8L131,76.8z M87,76.3c0.1-1.7,1.6-4.4,2.4-5.5c0.1-0.2,0.3-0.4,0.5-0.3
		c0.2,0,0.3,0.4,0.3,0.8v0.2c-0.1,2.1-1.1,4.6-2.4,5.7c-0.1,0-0.2,0.1-0.2,0.1C87.2,77.2,86.8,76.8,87,76.3L87,76.3z"/>
	<path class="st2" d="M145.1,96.8c-0.2,0-0.4,0.1-0.6,0.2c-0.8,0.6-1.4,2.5-1.1,3.5c0.3,1.4,1.5,2.3,2.5,2.1
		c1.3-0.2,1.7-1.3,1.3-2.8c-0.2-1.2-0.8-1.9-1.3-2.6C145.9,96.7,145.5,96.7,145.1,96.8L145.1,96.8z"/>
	<path class="st2" d="M156.5,113.1c-1.4,0.3-2.3,5.5-3.6,7.8c-0.1,0.2-0.3,0.5-0.3,0.5c-0.4,0.7-1.2,1.7-1.5,2.3
		c-0.1,0.1-0.4,0.3-0.5,0.3c-0.2,0-0.3-0.2-0.4-0.4c-0.1-0.8-0.2-1.5-0.2-2.3c0-2,0.1-3.8,0.2-5.7c0.1-2.2,0.2-4.3,0.3-6.6
		c0.1-1.2-0.2-2.3-0.9-2.9c-0.3-0.4-0.6-0.7-1-0.6c-0.3,0.1-0.6,0.3-0.9,0.7c-1.2,1.9-2.3,5.3-2.9,7.3c-1.3,3.6-2.3,7.4-3.5,11.2
		c-0.8,2.3-1.7,4.7-2.4,7.1c-0.4,0.9-0.8,2-1.3,2.9c-0.2,0.3-0.2,0.7-0.5,0.7c-0.1,0-0.2,0-0.2-0.1c-0.3-0.2-0.2-0.7-0.2-1.1
		c0.1-0.3,0.1-0.6,0.1-0.8c0.2-1.8,0.3-3.5,0.6-5.3c0.3-2.6,0.6-5.4,1.1-7.9c0.8-3.6,1.3-7.2,1.7-10.8c0.4-2.9-0.2-5.4-1.4-7.4
		c-0.6-1-1.3-1.2-2.3-1c-1.3,0.4-1.6,2.1-1.7,3.6c-0.5,3.8-1.2,7.6-1.9,11.4c-0.2,0.8-0.5,1.7-0.7,2.5c-0.6,2.4-1.3,5-2.3,7.4
		c-1.3,3.9-3.6,8-6.7,9.1c-0.2,0-0.5,0.2-0.7,0.2c-1.3,0.2-2-0.5-2.3-2.3c-0.7-3.2-1.3-6.4-1.2-9.8v-2.6c-0.1-0.6,0-1.2,0.2-1.8
		c0.2-0.4,0.3-0.6,0.6-0.5c0.3,0.1,0.5,0.1,0.7,0.2c0.5,0.2,1,0.3,1.5,0.2c0.7-0.1,1.5-0.6,2.1-1.4c0.7-0.8,1.4-1.7,1.9-2.5
		c2.5-4.5,2-9.7-1.3-12.5c-0.3-0.3-0.7-0.4-1.1-0.6c-0.8-0.2-1.5-0.2-2.2,0c-4,0.7-6.4,6.9-7.5,11.7c-0.6,2.6-0.8,5.3-0.9,8
		c-0.1,1.4-0.1,2.8,0,4.1c-0.1,0.2-0.1,0.3-0.2,0.5c-1.2,2.3-2.6,4.3-4.3,6c-0.1,0.1-0.2,0.1-0.2,0.2c-0.2,0-0.4-0.1-0.4-0.6
		c0.2-1.6,0.1-3.1-0.1-4.6c0-0.6,0-1.1,0.2-1.6c0.4-1.5,0.3-2.7,0.2-4.2c-0.2-3.5-1.5-14-5.1-13.4c-1.4,0.3-3.1,2.3-4,3.8
		c-2,2.7-3.7,5.8-5.4,8.9c-1.5,2.5-2.9,5-4.4,7.5c-0.5,0.9-0.9,1.5-1.4,2.2c-0.2,0.3-0.4,0.5-0.6,0.4c-0.4-0.2-0.3-0.7-0.3-1
		c1.2-7.5,3.7-16.4,8.8-20.9c0.5,0.1,0.6,0.7,0.8,1.1c0.4,0.7,0.7,0.9,1.3,0.8c0.6-0.3,0.7-1.2,0.8-1.9c0.1-0.5,0.2-0.9,0.1-1.3
		c-0.9-3.5-2.3-5-5-4.5c-6.6,1.2-11.3,15-12.6,24.8c-1.7,4-4.3,9.9-6.9,10.9c-0.8,0.3-1.4-0.4-1.3-1.5s0.2-2.1,0.4-3.1
		c0.8-5.4,0.9-10.9,0.6-16.1c-0.2-2.6-0.6-5.5-2.1-7c-0.6-0.7-1.1-0.9-1.6-0.8c-0.6,0.1-1.3,0.8-1.7,2c-1.2,2.3-1.6,7.2-1.6,9.9
		c-0.1,0.6-0.1,1.1-0.2,1.7c-0.1,0.2-0.2,0.4-0.3,0.4c0,0-0.1,0-0.2-0.1c-0.2-0.2-0.5-0.5-0.6-0.8c-0.6-0.8-0.9-1-1.5-0.9
		c-0.3,0.1-0.6,0.2-1,0.5c-0.6,0.6-1.3,1.4-1.7,2.3c-1.3,3.4-2,7.3-2.6,11c-0.1,0.8-0.2,1.6-0.6,2.2c-1.1,2-2.3,2.9-3.8,3.2
		c-0.9,0.1-1.9,0-2.8,0c-0.7-0.1-0.8-0.2-0.8-1.4c-0.1-2.1,0.4-4,0.6-6.1c0.4-3.3,0.9-6.7,1.5-10c0.3-1.9,0.1-3.5-0.8-4.9
		c-0.6-0.9-1-1.1-1.8-1c-1.8,0.5-2.7,4.5-3.2,6.6c-0.8,3.1-1.5,6.4-1.9,9.5c-1,3.6-2,7.2-3.1,10.8c-0.6,1.5-3.4,8.9-4.4,9.1
		c-0.2,0-0.4-0.3-0.5-0.7c-0.1-0.3-0.2-0.6-0.2-0.9c-0.2-2.3-0.4-4.6-0.4-6.8c0-7.1,0.6-14.3,1.3-21.5c0.2-2.8,0.6-5.8,0.8-8.7
		c0.1-2.5-0.5-4.6-1.5-6.4c-0.7-1.2-1.6-1.8-2.4-1.6c-0.7,0.1-1.5,0.8-2.2,1.8c-0.7,1.1-1.3,2.3-2,3.4c-1.7,3.6-3,7.5-4.3,11.4
		c-1.7,5-3.2,10.2-5.1,15c-0.9,2.1-1.7,4.2-2.7,6c-0.4,0.7-0.9,1.4-1.3,2c-0.2,0.3-0.3,0.4-0.5,0.4c-0.3,0.1-0.5-0.2-0.6-0.8
		c-0.5-3.1,0-6.4,0.9-9.5c0.8-1.1,0.7-2.1-0.1-2.8c-0.1-0.2-0.2-0.4-0.2-0.6c-0.2-0.7-0.6-0.9-1.2-0.9c-1.7,0.3-2.2,0.6-2.7,2.9
		c-0.1,0.2-0.1,0.3-0.2,0.6c-0.6,3-0.6,5.9-0.4,8.9c0.4,3.4,2,6.3,4.6,5.8c2-0.4,3.5-3.1,4.6-5.6c1.1-2.3,2.1-4.8,2.9-7.3
		c1.7-5,3.2-10.1,4.9-15c0.4-1.2,2.7-8.1,3.4-8.2c0.2,0.1,0.2,0.2,0.2,0.3c0,0.6,0,1.1-0.1,1.6c-1.8,10.5-2.4,21.2-2.4,31.6
		c0.2,5.8,1.3,11.4,6.4,11.3c2.1-0.4,3.2-2.2,4.1-4.8c1.4-3.1,2.4-6.4,3.5-9.7c0,1.1,0,2.3,0,3.3c0,4.1,0.1,15.2,4.4,14.4
		c1.1-0.2,2-1.1,2.2-2.7c0.1-0.7,0-1.4-0.1-2.2c-0.4-3.9-0.2-7.9-0.2-11.9c0.1-0.5,0.1-0.9,0.2-1.2c0.1-0.7,0.4-1.2,0.9-1.3
		c0.6-0.1,1.3-0.2,2-0.1c0.6,0,1,0,1.6-0.1c0.7-0.1,1.4-0.4,2-0.8c0.2-0.2,0.6-0.3,0.9-0.5c0.2,0.7,0.2,1.4,0.2,2
		c0.1,1.4,0.1,2.7,0.2,4.2c0.3,5,2.1,9,5.8,9.7c0.4,0,0.9,0.1,1.3,0c1.5-0.3,2.8-1.5,3.8-4.1c0.7-2.1,1.3-4.2,1.9-6.5
		c0.3-1.6,0.6-3.1,1-4.7c0.2-0.8,0.2-1,0.6-1.1c0.2,0,0.4-0.1,0.6,0c0.6,0.1,1.1,0.1,1.7,0c1.3-0.2,2.5-1.2,3.6-2.6
		c0.2-0.4,0.5-0.6,0.7-1c0.7-1,1.4-2.1,2-3.2c0.6,2.4,2.3,3.9,4.1,4c0.3,0,0.6,0,0.9,0c0.8-0.1,1.5-0.7,2-1.8
		c0.5-0.9,0.9-1.7,1.3-2.4c2.3-4.6,4.5-9.2,6.8-13.8c1.8-3.4,3.8-6.8,6.3-9.5c0.3-0.2,0.6-0.4,0.9-0.6c0.2-0.2,0.5,0,0.6,0.5
		c0,0.4,0.1,1,0,1.5c-0.4,7.8-1.4,15.4-2.4,23.1c-0.2,0.7-0.4,1.2-0.9,1.3s-0.9,0.2-1.4,0.3c-3.4,0.6-6.5,1.2-9.3,5
		c-3.1,4.3-5.2,9.5-5.8,15.4c-0.4,4,0.6,7.1,2.7,9.2c1.7,1.6,3.8,2,6,1.7c6.5-1.2,9.4-8,11.5-15.9c1.3-4.4,2.1-8.9,2.7-13.3
		c0.3-2.1,0.9-3.5,2.3-4.7c1.8-1.5,3.1-3.2,4.3-5.3c0.1,0.4,0.1,0.7,0.2,1.1c0.3,1.6,0.9,3,1.7,4.3c1.7,3.1,4.5,4.5,7.2,4
		c1.7-0.3,3.2-1.2,4.7-2.7c0.9-1.2,1.7-2.3,2.3-3.7c0.4-0.8,0.8-1.6,1.1-2.3c-0.3,2.6-0.5,5.4-0.6,8c-0.1,1.4,0,2.8,0.2,4.2
		c0.2,1.2,0.7,2.1,1.4,2.5c0.9,0.8,2,1.1,3.1,0.9c0.4-0.1,0.7-0.1,1.1-0.3c1.3-0.5,2.2-1.9,2.8-3.5c0.2-0.6,0.4-1.1,0.6-1.7
		c0.6-2,1.3-3.7,1.9-5.7c1.9-6.3,3.6-12.4,5.4-18.7c0.1-0.2,0.2-0.4,0.3-0.4c0.2,0,0.3,0.2,0.2,0.5c-0.2,2.1-0.2,4.1-0.1,6.2
		c0,2.9,0.6,7,3.2,6.6c1.9-0.2,3.4-2.7,3.9-3.4c1.7-2.8,3-5.7,4.3-8.7c0-0.1,0-0.1,0.1-0.2c0-0.2,0-0.3,0-0.5
		C157.9,113.5,157,113,156.5,113.1z M120.2,115.1c0.2-2.3,2.2-5.9,3.3-7.3c0.2-0.3,0.5-0.5,0.6-0.4c0.3,0.1,0.4,0.6,0.5,1v0.3
		c-0.2,2.8-1.4,6.2-3.3,7.5c-0.1,0-0.2,0.2-0.3,0.2C120.5,116.4,120,115.9,120.2,115.1z M69.9,140.4c-0.7,2.8-2.3,8.4-3.7,10.8
		c-0.1,0.2-0.2,0.4-0.3,0.4c-0.2,0-0.3-0.1-0.4-0.3c-0.2-0.5-0.3-1-0.4-1.6c-0.3-2-0.6-4-0.6-5.8c0-2.6,0.2-5.1,0.6-7.5
		c0.4-2.6,0.9-5.4,1.3-8.2c0.1-0.3,0.2-0.7,0.5-0.7s0.3,0.4,0.3,0.7c0.2,0.9,0.2,1.8,0.4,2.6c0.3,2.5,1,4.9,2.1,6.9
		C70.1,138.6,70.1,139.5,69.9,140.4L69.9,140.4z M71.7,131.7c-0.1,0.3-0.2,0.7-0.2,1c0,0.1-0.2,0.3-0.2,0.3c-0.2,0-0.3,0.1-0.3,0
		c-0.2-0.5-0.4-1-0.5-1.6c-0.6-2.9-0.9-5.9-0.9-9c-0.2-2.3,0.2-4.5,0.6-6.8c0.2-0.6,0.2-1,0.4-1.5c0.1-0.3,0.3-0.7,0.6-0.6
		c0.1,0,0.3,0.2,0.3,0.4c0.2,0.8,0.5,1.7,0.6,2.5C72.4,121.4,72.4,126.5,71.7,131.7z M100.1,142.1c-1.2,5.9-4.4,21.2-9.8,22.2
		c-1.7,0.3-3.2-0.9-3.8-3.5c-0.3-1.4-0.3-2.8-0.2-4.4c0.9-7.9,4.9-15.5,10.8-17c0.4-0.1,0.8-0.1,1.3-0.2c0.4-0.1,0.7-0.1,0.9-0.2
		C100.8,138.7,100.7,138.9,100.1,142.1z"/>
</g>
</svg>
